<?xml version="1.0" encoding="UTF-8"?> <svg xmlns="http://www.w3.org/2000/svg" width="1951" height="1206" viewBox="0 0 1951 1206" fill="none"><g clip-path="url(#clip0_319_845)"><mask id="mask0_319_845" style="mask-type:luminance" maskUnits="userSpaceOnUse" x="0" y="0" width="1951" height="1206"><path d="M1951 0H0V1206H1951V0Z" fill="white"></path></mask><g mask="url(#mask0_319_845)"><path d="M1951 0H14.8125V1206H1951V0Z" fill="#102237"></path><path d="M1934.18 4H0V1203H1934.18V4Z" fill="#102237"></path><path d="M242.549 535.583C242.537 564.381 235.304 592.717 221.507 618.011C207.71 643.304 187.79 664.751 163.561 680.395C139.331 696.04 111.563 705.386 82.7877 707.581C54.012 709.776 25.1432 704.751 -1.18796 692.963C-1.78926 692.703 -2.39056 692.423 -2.98184 692.153C-7.43147 690.093 -11.7709 687.857 -16 685.443C-11.7909 679.213 -7.45151 673.097 -2.98184 667.093V379.013C-2.39056 378.743 -1.78926 378.463 -1.18796 378.203C25.1402 366.374 54.0196 361.316 82.8113 363.493C111.603 365.669 139.389 375.011 163.631 390.663C187.872 406.316 207.796 427.781 221.582 453.097C235.368 478.412 242.577 506.772 242.549 535.583Z" fill="#0E1F31"></path><path d="M1037.74 332.885C1048.53 332.885 1057.28 324.155 1057.28 313.385C1057.28 302.615 1048.53 293.885 1037.74 293.885C1026.94 293.885 1018.2 302.615 1018.2 313.385C1018.2 324.155 1026.94 332.885 1037.74 332.885Z" fill="#0E1F31"></path><path d="M885.375 1051.23C871.271 1091.69 852.098 1130.2 828.311 1165.87C828.061 1166.25 827.81 1166.62 827.56 1166.99H-1.22308V1165.87H-3.01696V606.936C-7.46658 604.876 -11.806 602.64 -16.0352 600.226C-11.8261 593.996 -7.48663 587.88 -3.01696 581.876C-2.42568 581.076 -1.82438 580.276 -1.22308 579.476C63.5851 493.498 154.095 430.291 257.243 398.977C360.392 367.663 470.844 369.862 572.658 405.256C837.782 497.466 977.785 786.676 885.375 1051.23Z" fill="#152846"></path><path d="M891.337 959.184C871.995 979.358 872.877 976.727 864.966 991.638C857.055 1006.55 863.647 1006.11 853.099 1012.25C842.552 1018.39 819.695 1042.95 816.18 1041.2C812.664 1039.44 786.292 1034.18 778.381 1039.44C770.47 1044.71 766.956 1035.93 729.155 1058.74C691.355 1081.55 682.566 1074.53 682.566 1074.53C682.566 1074.53 661.469 1054.36 652.679 1040.32C643.889 1026.29 631.582 1025.41 628.066 1017.52C624.549 1009.63 614.001 987.699 606.969 983.313C599.937 978.927 602.574 973.665 579.719 965.771C579.719 965.771 568.295 963.139 565.215 953.929C565.215 953.929 577.521 916.213 582.796 911.829C588.07 907.445 599.497 886.392 601.255 880.252C603.013 874.112 635.538 840.781 651.363 842.535C651.363 842.535 700.59 851.307 709.38 869.726C718.17 888.145 747.178 916.215 751.571 918.846C755.963 921.477 751.571 930.152 751.571 930.152C751.571 930.152 776.184 948.669 799.918 946.914C823.653 945.159 822.768 960.948 846.507 960.071C870.247 959.194 879.909 967.078 891.337 959.184Z" fill="#0E1F31"></path><path d="M891.338 959.184C879.914 967.078 870.242 959.184 846.507 960.061C822.773 960.938 823.658 945.15 799.919 946.904C776.179 948.658 751.571 930.142 751.571 930.142C751.571 930.142 755.966 921.467 751.571 918.836C747.175 916.205 718.168 888.136 709.38 869.716C700.592 851.296 651.363 842.525 651.363 842.525C667.187 844.28 649.605 837.262 683.009 845.157C683.009 845.157 728.719 841.648 738.388 838.14C748.056 834.632 773.55 858.314 773.55 858.314C773.55 858.314 775.307 866.208 789.372 866.208C803.436 866.208 815.743 885.508 823.655 888.136C831.567 890.764 857.937 899.536 870.244 916.205C882.55 932.874 910.677 939.01 891.338 959.184Z" fill="#0E1F31"></path><path d="M1186.86 439.4C1181.85 444.626 1182.07 443.944 1180.02 447.807C1177.98 451.67 1179.68 451.556 1176.95 453.146C1174.22 454.736 1168.3 461.098 1167.39 460.646C1166.48 460.194 1159.65 458.828 1157.6 460.192C1155.55 461.556 1154.64 459.283 1144.85 465.192C1135.05 471.101 1132.78 469.282 1132.78 469.282C1132.78 469.282 1127.31 464.056 1125.03 460.421C1122.76 456.786 1119.57 456.558 1118.66 454.513C1117.75 452.468 1115.02 446.788 1113.19 445.652C1111.37 444.516 1112.06 443.152 1106.14 441.108C1106.14 441.108 1103.18 440.426 1102.38 438.041C1102.38 438.041 1105.57 428.271 1106.93 427.135C1108.3 425.999 1111.26 420.545 1111.72 418.955C1112.17 417.365 1120.6 408.731 1124.69 409.185C1124.69 409.185 1137.44 411.457 1139.73 416.228C1142.01 420.999 1149.52 428.271 1150.66 428.952C1151.79 429.633 1150.66 431.881 1150.66 431.881C1150.66 431.881 1157.03 436.681 1163.18 436.223C1169.33 435.765 1169.1 439.858 1175.25 439.631C1181.4 439.404 1183.9 441.449 1186.86 439.4Z" fill="#152846"></path><path d="M1186.85 439.4C1183.89 441.445 1181.39 439.4 1175.24 439.627C1169.09 439.854 1169.32 435.764 1163.17 436.219C1157.02 436.674 1150.65 431.877 1150.65 431.877C1150.65 431.877 1151.78 429.63 1150.65 428.948C1149.51 428.266 1141.99 420.996 1139.72 416.224C1137.44 411.452 1124.68 409.181 1124.68 409.181C1128.78 409.635 1124.23 407.818 1132.88 409.863C1132.88 409.863 1144.72 408.954 1147.23 408.045C1149.73 407.136 1156.34 413.271 1156.34 413.271C1156.34 413.271 1156.79 415.316 1160.43 415.316C1164.08 415.316 1167.26 420.316 1169.31 420.996C1171.36 421.676 1178.19 423.95 1181.38 428.267C1184.57 432.584 1191.86 434.178 1186.85 439.4Z" fill="#0E1F31"></path><path d="M946.836 468.519C949.167 470.951 949.061 470.634 950.015 472.431C950.969 474.228 950.173 474.176 951.445 474.916C952.717 475.656 955.472 478.616 955.896 478.405C956.319 478.194 959.503 477.559 960.451 478.194C961.399 478.829 961.829 477.771 966.386 480.52C970.943 483.269 971.998 482.42 971.998 482.42C973.325 481.16 974.531 479.779 975.601 478.296C976.661 476.605 978.145 476.496 978.569 475.547C978.992 474.598 980.264 471.947 981.112 471.424C981.96 470.901 981.641 470.26 984.396 469.309C984.778 469.22 985.133 469.045 985.437 468.798C985.74 468.55 985.982 468.237 986.145 467.881C986.145 467.881 984.662 463.335 984.025 462.806C983.086 461.664 982.336 460.379 981.805 459C981.592 458.26 977.672 454.242 975.764 454.453C975.764 454.453 969.831 455.51 968.771 457.731C967.415 459.972 965.696 461.973 963.684 463.652C963.155 463.969 963.684 465.015 963.684 465.015C963.684 465.015 960.718 467.247 957.857 467.036C954.996 466.825 955.102 468.727 952.245 468.622C949.387 468.517 948.213 469.47 946.836 468.519Z" fill="#0E1F31"></path><path d="M946.834 468.519C948.211 469.47 949.376 468.519 952.237 468.625C955.099 468.731 954.992 466.825 957.85 467.039C960.707 467.253 963.677 465.018 963.677 465.018C963.677 465.018 963.148 463.972 963.677 463.655C965.689 461.976 967.408 459.975 968.764 457.734C969.823 455.513 975.757 454.456 975.757 454.456C973.853 454.668 975.97 453.822 971.943 454.773C969.702 454.629 967.472 454.347 965.267 453.927C964.101 453.505 961.028 456.359 961.028 456.359C961.028 456.359 960.816 457.311 959.124 457.311C957.433 457.311 955.945 459.637 954.991 459.954C954.037 460.271 950.858 461.329 949.379 463.338C947.9 465.347 944.502 466.087 946.834 468.519Z" fill="#152846"></path><path d="M908.581 505.886C907.479 507.041 907.525 506.886 907.072 507.744C906.619 508.602 906.997 508.572 906.394 508.923C905.79 509.274 904.481 510.68 904.28 510.58C903.584 510.34 902.833 510.305 902.117 510.48C901.664 510.78 901.463 510.28 899.3 511.58C897.138 512.88 896.633 512.48 896.633 512.48C896.004 511.882 895.432 511.227 894.924 510.523C894.423 509.723 893.721 509.669 893.515 509.223C893.234 508.503 892.824 507.84 892.307 507.265C891.906 507.014 892.056 506.713 890.748 506.265C890.567 506.223 890.398 506.139 890.254 506.022C890.11 505.904 889.995 505.756 889.918 505.587C890.166 504.751 890.502 503.944 890.92 503.178C891.367 502.636 891.724 502.026 891.976 501.371C892.077 501.019 893.939 499.112 894.844 499.212C894.844 499.212 897.661 499.712 898.164 500.768C898.807 501.832 899.624 502.782 900.579 503.579C900.831 503.73 900.579 504.226 900.579 504.226C901.381 504.822 902.347 505.157 903.346 505.186C904.704 505.086 904.654 505.986 906.012 505.939C907.37 505.892 907.928 506.338 908.581 505.886Z" fill="#0E1F31"></path><path d="M908.581 505.886C907.928 506.338 907.374 505.886 906.016 505.937C904.658 505.988 904.713 505.083 903.35 505.184C902.351 505.155 901.385 504.82 900.583 504.224C900.583 504.224 900.835 503.724 900.583 503.577C899.628 502.78 898.811 501.83 898.168 500.766C897.667 499.712 894.848 499.21 894.848 499.21C895.75 499.31 894.747 498.91 896.659 499.361C897.722 499.293 898.781 499.16 899.828 498.961C900.382 498.761 901.841 500.116 901.841 500.116C901.841 500.116 901.941 500.568 902.743 500.568C903.544 500.568 904.252 501.668 904.705 501.822C905.725 502.103 906.647 502.659 907.371 503.429C908.078 504.381 909.689 504.732 908.581 505.886Z" fill="#152846"></path><path d="M862.602 530.989C861.845 531.779 861.879 531.676 861.569 532.26C861.26 532.844 861.517 532.827 861.104 533.067C860.692 533.307 859.797 534.267 859.659 534.201C859.183 534.036 858.669 534.012 858.179 534.132C857.492 534.253 856.836 534.51 856.251 534.888C854.772 535.781 854.427 535.505 854.427 535.505C853.996 535.095 853.604 534.648 853.256 534.166C852.913 533.617 852.431 533.582 852.293 533.273C852.1 532.781 851.82 532.327 851.467 531.934C851.192 531.762 851.295 531.556 850.4 531.247C850.276 531.218 850.161 531.161 850.062 531.081C849.964 531 849.885 530.899 849.832 530.783C850.003 530.211 850.234 529.659 850.521 529.135C850.826 528.764 851.07 528.346 851.243 527.898C851.312 527.658 852.586 526.353 853.205 526.421C853.205 526.421 855.132 526.765 855.477 527.486C855.917 528.214 856.475 528.864 857.129 529.409C857.301 529.509 857.129 529.852 857.129 529.852C857.677 530.259 858.338 530.488 859.022 530.508C859.952 530.439 859.917 531.057 860.847 531.023C861.777 530.989 862.155 531.3 862.602 530.989Z" fill="#0E1F31"></path><path d="M862.599 530.989C862.153 531.298 861.774 530.989 860.845 531.024C859.916 531.059 859.95 530.44 859.02 530.509C858.336 530.489 857.675 530.259 857.127 529.852C857.127 529.852 857.299 529.513 857.127 529.409C856.473 528.864 855.915 528.214 855.475 527.486C855.13 526.765 853.203 526.421 853.203 526.421C853.822 526.49 853.134 526.215 854.442 526.521C855.17 526.474 855.894 526.383 856.611 526.247C856.989 526.109 857.988 527.037 857.988 527.037C857.988 527.037 858.057 527.346 858.607 527.346C859.157 527.346 859.639 528.101 859.95 528.204C860.647 528.397 861.278 528.777 861.774 529.304C862.256 529.959 863.357 530.2 862.599 530.989Z" fill="#152846"></path><path d="M1192.68 788.715C1189.54 806.007 1189.08 804.321 1190.11 814.892C1191.14 825.463 1194.45 822.95 1191.05 829.828C1187.64 836.706 1184.18 857.518 1181.72 857.814C1179.26 858.11 1163.58 864.477 1161.26 869.98C1158.93 875.483 1154.04 872.094 1142.12 897.16C1130.2 922.226 1123.14 921.584 1123.14 921.584C1123.14 921.584 1105.04 918.293 1095.54 913.965C1086.05 909.637 1079.28 913.437 1074.68 910.508C1070.09 907.579 1056.93 899.714 1051.71 899.845C1046.49 899.976 1046.04 896.299 1031.29 900.066C1031.29 900.066 1024.38 902.64 1019.56 898.866C1019.56 898.866 1012.91 874.794 1014.15 870.666C1015.4 866.538 1014.08 851.523 1012.87 847.689C1011.65 843.855 1017.15 815.089 1026.07 810.53C1026.07 810.53 1054.97 798.093 1066 804.724C1077.02 811.355 1102.02 816.055 1105.24 815.915C1108.46 815.775 1109.17 821.854 1109.17 821.854C1109.17 821.854 1128.54 823.054 1140.39 813.918C1152.25 804.782 1157.28 813.376 1169.44 804.698C1181.6 796.02 1189.42 796.818 1192.68 788.715Z" fill="#0E1F31"></path><path d="M1192.68 788.715C1189.42 796.815 1181.6 796.015 1169.44 804.698C1157.28 813.381 1152.25 804.779 1140.39 813.918C1128.54 823.057 1109.17 821.854 1109.17 821.854C1109.17 821.854 1108.46 815.775 1105.24 815.915C1102.02 816.055 1077.02 811.356 1065.99 804.724C1054.97 798.092 1026.07 810.53 1026.07 810.53C1034.99 805.973 1023.31 808.374 1043.6 800.955C1043.6 800.955 1066.39 783.285 1070.25 778.095C1074.11 772.905 1095.74 776.517 1095.74 776.517C1095.74 776.517 1099.41 780.054 1106.79 775.185C1114.18 770.316 1127.35 776.19 1132.43 774.832C1137.5 773.474 1154.4 768.952 1166.66 773.444C1178.92 777.936 1195.82 771.422 1192.68 788.715Z" fill="#152846"></path><path d="M1312.33 489.4C1304.61 484.641 1305.1 485.4 1301.39 481.358C1297.69 477.316 1299.79 476.921 1295.98 475.858C1292.17 474.795 1282.97 468.941 1282.01 469.779C1281.05 470.617 1273.2 474.421 1270.29 473.414C1267.37 472.407 1266.99 475.448 1253.25 471.369C1239.52 467.29 1237.33 470.211 1237.33 470.211C1237.33 470.211 1232.35 478.269 1230.74 483.393C1229.13 488.517 1225.34 489.793 1224.88 492.564C1224.42 495.335 1222.91 503.078 1221.06 505.029C1219.21 506.98 1220.47 508.418 1213.94 512.762C1213.94 512.762 1210.56 514.52 1210.35 517.662C1210.35 517.662 1217.31 528.503 1219.32 529.451C1221.34 530.399 1226.65 536.077 1227.71 537.862C1228.76 539.647 1241.71 547.462 1246.53 545.62C1246.53 545.62 1261.28 538.849 1262.53 532.347C1263.78 525.845 1270.59 514.663 1271.75 513.478C1272.92 512.293 1270.83 509.927 1270.83 509.927C1270.83 509.927 1277.04 502.103 1284.64 500.718C1292.24 499.333 1290.67 494.446 1298.19 492.785C1305.72 491.124 1308.1 487.849 1312.33 489.4Z" fill="#152846"></path><path d="M1312.33 489.4C1308.1 487.853 1305.71 491.121 1298.18 492.782C1290.66 494.443 1292.23 499.33 1284.63 500.715C1277.03 502.1 1270.82 509.924 1270.82 509.924C1270.82 509.924 1272.91 512.29 1271.74 513.475C1270.58 514.66 1263.77 525.841 1262.52 532.344C1261.26 538.847 1246.52 545.617 1246.52 545.617C1251.35 543.775 1246.4 547.417 1256.24 542.209C1256.24 542.209 1270.89 539.581 1274.21 539.894C1277.54 540.207 1283.6 530.694 1283.6 530.694C1283.6 530.694 1283.5 528.071 1287.92 526.924C1292.35 525.777 1294.63 518.712 1296.9 517.24C1299.16 515.768 1306.73 510.862 1309.23 504.623C1311.73 498.384 1320.06 494.154 1312.33 489.4Z" fill="#0E1F31"></path><path d="M556.196 822.885C556.196 822.885 539.159 845.885 532.144 855.885C525.129 865.885 501.077 881.885 494.062 879.885C487.046 877.885 480.031 857.885 480.031 857.885L480.041 857.875C480.592 857.625 499.173 848.895 506.088 849.885C513.103 850.885 539.159 822.885 539.159 822.885L547.477 811.035C554.542 817.935 556.196 822.885 556.196 822.885Z" fill="#0E1F31"></path><path d="M547.479 811.035L539.161 822.885C539.161 822.885 513.104 850.885 506.089 849.885C499.174 848.895 480.594 857.625 480.043 857.875C480.314 857.355 489.193 840.805 498.072 835.885C507.091 830.885 506.089 814.885 518.115 811.885C530.141 808.885 536.154 800.885 545.174 808.885C545.996 809.615 546.764 810.335 547.479 811.035Z" fill="#0E1F31"></path><path d="M948.431 793.333C948.431 793.333 977.06 791.956 989.29 791.683C1001.52 791.41 1028.21 780.324 1030.43 773.391C1032.66 766.458 1019.88 749.535 1019.88 749.535H1019.87C1019.35 749.854 1001.76 760.435 998.748 766.721C995.689 773.099 957.886 779.189 957.886 779.189L943.391 779.517C945.224 789.214 948.431 793.333 948.431 793.333Z" fill="#0E1F31"></path><path d="M943.665 779.683L958.254 779.353C958.254 779.353 996.304 773.224 999.382 766.804C1002.41 760.474 1020.12 749.828 1020.64 749.504C1020.05 749.439 1001.2 747.613 992.114 752.283C982.881 757.026 970.015 747.251 960.78 755.623C951.545 763.995 941.474 764.549 943.149 776.553C943.302 777.651 943.475 778.7 943.665 779.683Z" fill="#0E1F31"></path><path d="M1315.2 610.62C1315.2 610.62 1321.78 624.537 1324.43 630.547C1327.08 636.557 1338.1 647.511 1342.01 647.188C1345.92 646.865 1351.72 637.042 1351.72 637.042V637.036C1351.46 636.846 1342.57 630.3 1338.81 630.1C1335.01 629.9 1324.19 612.4 1324.19 612.4L1321.04 605.278C1316.59 608.181 1315.2 610.62 1315.2 610.62Z" fill="#0E1F31"></path><path d="M1321.01 605.443L1324.18 612.612C1324.18 612.612 1335.07 630.222 1338.9 630.428C1342.67 630.628 1351.62 637.218 1351.89 637.409C1351.8 637.109 1348.83 627.38 1344.63 623.834C1340.37 620.234 1342.59 611.834 1336.52 608.98C1330.44 606.126 1328.1 601.242 1322.46 604.543C1321.95 604.845 1321.46 605.146 1321.01 605.443Z" fill="#0E1F31"></path><path d="M1205.42 414.556C1205.42 414.556 1198.43 411.075 1195.48 409.514C1192.54 407.953 1184.71 407.04 1183.25 408.393C1181.8 409.746 1182.58 415.472 1182.58 415.472C1182.74 415.464 1188.34 415.287 1189.89 414.191C1191.47 413.081 1201.28 416.66 1201.28 416.66L1204.77 418.51C1205.27 417.254 1205.5 415.905 1205.42 414.556Z" fill="#0E1F31"></path><path d="M1204.74 418.438L1201.22 416.576C1201.22 416.576 1191.35 412.976 1189.76 414.091C1188.19 415.191 1182.56 415.372 1182.39 415.379C1182.53 415.473 1186.76 418.414 1189.55 418.512C1192.38 418.612 1194.14 422.648 1197.45 421.885C1200.77 421.122 1203.24 422.329 1204.44 419.25C1204.55 418.97 1204.65 418.7 1204.74 418.438Z" fill="#0E1F31"></path><path d="M902.945 1017.91C902.945 1017.91 895.323 1028.43 892.185 1033C889.046 1037.58 878.286 1044.89 875.148 1043.98C872.009 1043.06 868.871 1033.92 868.871 1033.92C869.119 1033.8 877.431 1029.81 880.524 1030.26C883.662 1030.72 895.319 1017.92 895.319 1017.92L899.04 1012.5C902.205 1015.65 902.945 1017.91 902.945 1017.91Z" fill="#0E1F31"></path><path d="M899.044 1012.5L895.323 1017.92C895.323 1017.92 883.666 1030.72 880.528 1030.26C877.435 1029.81 869.123 1033.8 868.875 1033.92C868.996 1033.68 872.969 1026.12 876.941 1023.86C880.976 1021.58 880.528 1014.26 885.908 1012.89C891.288 1011.51 893.978 1007.86 898.013 1011.52C898.381 1011.85 898.723 1012.18 899.044 1012.5Z" fill="#0E1F31"></path><path d="M1201.59 503.915C1201.59 503.915 1193.97 514.431 1190.83 519.004C1187.69 523.577 1176.93 530.892 1173.8 529.978C1170.66 529.064 1167.52 519.918 1167.52 519.918C1167.77 519.803 1176.08 515.812 1179.17 516.264C1182.31 516.722 1193.97 503.919 1193.97 503.919L1197.69 498.501C1200.85 501.652 1201.59 503.915 1201.59 503.915Z" fill="#0E1F31"></path><path d="M1197.69 498.5L1193.97 503.918C1193.97 503.918 1182.31 516.718 1179.18 516.263C1176.08 515.811 1167.77 519.802 1167.52 519.917C1167.64 519.679 1171.62 512.112 1175.59 509.862C1179.62 507.576 1179.18 500.262 1184.56 498.888C1189.94 497.514 1192.63 493.859 1196.66 497.517C1197.03 497.847 1197.37 498.177 1197.69 498.5Z" fill="#0E1F31"></path><path d="M924.715 475.169C924.715 475.169 925.551 470.769 925.859 468.876C926.168 466.983 928.455 463.123 929.567 462.949C930.68 462.775 933.01 465.175 933.01 465.175C932.95 465.247 930.938 467.712 929.903 468.024C928.855 468.341 927.097 474.051 927.097 474.051L926.73 476.29C925.986 476.064 925.299 475.682 924.715 475.169Z" fill="#0E1F31"></path><path d="M926.73 476.292L927.097 474.053C927.097 474.053 928.859 468.343 929.904 468.026C930.938 467.714 932.948 465.249 933.01 465.177C933.01 465.269 932.88 468.216 931.969 469.502C931.044 470.807 932.259 473.029 930.779 474.246C929.299 475.463 928.996 477 927.196 476.446C927.034 476.4 926.878 476.345 926.73 476.292Z" fill="#0E1F31"></path><path d="M575.325 1061.94C575.325 1061.94 575.012 1080.75 574.67 1088.78C574.328 1096.8 580.482 1114.76 584.952 1116.51C589.422 1118.26 601.097 1110.61 601.097 1110.61V1110.6C600.909 1110.25 594.699 1098.28 590.69 1096.04C586.624 1093.76 584.228 1068.74 584.228 1068.74L584.628 1059.23C578.17 1060.01 575.325 1061.94 575.325 1061.94Z" fill="#0E1F31"></path><path d="M584.627 1059.23L584.227 1068.74C584.227 1068.74 586.623 1093.76 590.689 1096.04C594.697 1098.28 600.911 1110.25 601.096 1110.6C601.163 1110.22 603.154 1098.03 600.487 1091.92C597.781 1085.71 604.711 1077.75 599.63 1071.38C594.549 1065.02 594.612 1058.44 586.694 1059.02C585.971 1059.08 585.28 1059.14 584.627 1059.23Z" fill="#0E1F31"></path><path d="M472.214 954.365C472.214 954.365 463.996 982.885 449.966 991.885C449.966 991.885 446.959 992.885 438.942 1010.89C430.924 1028.89 399.857 1042.89 399.857 1042.89C399.857 1042.89 373.801 1051.89 368.79 1053.89C363.779 1055.89 347.744 1058.89 342.734 1068.89C337.723 1078.89 313.671 1079.89 313.671 1079.89C313.671 1079.89 299.64 1057.89 293.627 1054.89C287.614 1051.89 279.597 1048.89 274.586 1040.89C274.586 1040.89 251.536 1033.89 240.512 1026.89C229.489 1019.89 223.476 1029.89 213.454 1022.89C203.432 1015.89 200.426 1006.89 200.426 1006.89C200.426 1006.89 213.905 1006.63 224.348 1002.27C228.296 1000.63 231.804 998.394 233.998 995.385C238.348 989.425 253.33 990.215 267.812 993.865C280.048 996.945 291.924 1002.08 296.714 1006.89C307.157 1017.39 338.224 1002.39 358.267 1004.39C378.311 1006.39 406.371 998.385 425.412 982.385C444.454 966.385 472.214 954.365 472.214 954.365Z" fill="#0E1F31"></path><path d="M472.214 954.365C472.214 954.365 444.454 966.385 425.412 982.385C406.371 998.385 378.311 1006.39 358.267 1004.39C338.224 1002.39 307.157 1017.39 296.714 1006.89C291.924 1002.08 280.048 996.945 267.812 993.865C253.33 990.215 238.348 989.425 233.998 995.385C231.804 998.394 228.296 1000.63 224.348 1002.27L200.426 1006.89C200.426 1006.89 203.432 986.885 218.465 976.885C233.497 966.885 228.486 958.885 250.534 944.885C272.582 930.885 267.571 912.885 278.595 905.885C289.619 898.885 309.452 903.885 322.089 905.885C334.726 907.885 350.751 895.885 369.792 905.885C388.833 915.885 384.825 931.885 422.907 937.885C460.989 943.885 472.214 954.365 472.214 954.365Z" fill="#0E1F31"></path><path d="M1230.1 636.264C1230.1 636.264 1224.19 651.776 1227.43 660.502C1227.43 660.502 1228.44 661.956 1225.97 672.694C1223.5 683.432 1232.69 700.101 1232.69 700.101C1232.69 700.101 1241.32 712.855 1242.89 715.428C1244.46 718.001 1250.62 724.714 1249.51 730.866C1248.39 737.018 1258.81 745.521 1258.81 745.521C1258.81 745.521 1272.49 740.378 1276.18 741.05C1279.88 741.722 1284.48 743.065 1289.41 741.164C1289.41 741.164 1302.08 745.753 1309.37 746.313C1316.65 746.873 1315.98 753.362 1322.82 753.587C1326.75 753.782 1330.65 752.809 1334.03 750.792C1334.03 750.792 1328.09 746.161 1324.88 740.713C1323.65 738.829 1322.96 736.648 1322.88 734.402C1322.94 730.279 1315.97 725.615 1308.26 722.402C1301.75 719.682 1294.71 718.002 1290.95 718.547C1282.75 719.747 1273.89 702.63 1264.25 696.812C1254.61 690.994 1244.75 678.012 1241.61 664.48C1238.48 650.948 1230.1 636.264 1230.1 636.264Z" fill="#0E1F31"></path><path d="M1230.1 636.264C1230.1 636.264 1238.47 650.939 1241.61 664.475C1244.75 678.011 1254.61 690.988 1264.25 696.807C1273.89 702.626 1282.74 719.742 1290.95 718.542C1294.71 717.994 1301.75 719.677 1308.26 722.397C1315.96 725.615 1322.93 730.279 1322.87 734.397C1322.96 736.643 1323.65 738.824 1324.88 740.708L1334.03 750.787C1334.03 750.787 1339.41 740.832 1336.05 731.323C1332.69 721.814 1337.62 719.914 1332.46 706.266C1327.31 692.618 1335.61 686.243 1333.03 679.419C1330.45 672.595 1319.9 668.19 1313.57 664.852C1307.24 661.514 1304.11 650.778 1292.22 648.874C1280.34 646.97 1276.75 655.474 1257.7 645.401C1238.64 635.328 1230.1 636.264 1230.1 636.264Z" fill="#152846"></path><path d="M1063.71 433.1C1063.71 433.1 1056.39 430.57 1052.36 432.2C1052.36 432.2 1051.69 432.69 1046.65 431.7C1041.6 430.71 1033.95 435.214 1033.95 435.214C1033.95 435.214 1028.12 439.407 1026.93 440.173C1025.75 440.939 1022.71 443.9 1019.82 443.466C1016.93 443.032 1013.1 447.998 1013.1 447.998C1013.1 447.998 1015.7 454.282 1015.44 456.012C1015.18 457.742 1014.61 459.896 1015.57 462.162C1015.57 462.162 1013.61 468.115 1013.45 471.51C1013.29 474.905 1010.25 474.685 1010.24 477.866C1010.21 479.697 1010.72 481.496 1011.71 483.038C1012.99 481.337 1014.53 479.851 1016.28 478.638C1017.15 478.041 1018.15 477.689 1019.2 477.617C1021.13 477.586 1023.21 474.28 1024.6 470.652C1025.78 467.587 1026.46 464.292 1026.15 462.552C1025.47 458.752 1033.34 454.397 1035.92 449.833C1038.5 445.269 1044.42 440.501 1050.69 438.85C1055.25 437.472 1059.62 435.541 1063.71 433.1Z" fill="#152846"></path><path d="M1063.71 433.1C1059.63 435.541 1055.26 437.472 1050.71 438.852C1044.43 440.503 1038.51 445.272 1035.93 449.835C1033.36 454.398 1025.49 458.758 1026.17 462.554C1026.48 464.295 1025.79 467.59 1024.61 470.654C1023.22 474.282 1021.14 477.588 1019.22 477.619C1018.17 477.691 1017.16 478.044 1016.3 478.64L1011.72 483.04C1011.72 483.04 1016.45 485.4 1020.84 483.703C1025.24 482.006 1026.19 484.271 1032.49 481.681C1038.79 479.091 1041.88 482.857 1045.03 481.562C1048.18 480.267 1050.09 475.298 1051.55 472.31C1053.02 469.322 1057.99 467.71 1058.71 462.162C1059.43 456.614 1055.41 455.062 1059.84 446.062C1064.27 437.062 1063.71 433.1 1063.71 433.1Z" fill="#0E1F31"></path><path d="M918.969 488.659C918.969 488.659 922.723 487.359 924.787 488.2C924.787 488.2 925.128 488.451 927.715 487.941C930.301 487.431 934.223 489.741 934.223 489.741C934.223 489.741 937.211 491.89 937.815 492.282C938.42 492.674 939.981 494.192 941.46 493.97C942.94 493.748 944.9 496.292 944.9 496.292C944.9 496.292 943.569 499.513 943.703 500.399C943.991 501.434 943.967 502.53 943.634 503.551C944.155 505.108 944.519 506.713 944.72 508.342C944.802 510.082 946.359 509.968 946.363 511.599C946.381 512.537 946.12 513.459 945.612 514.249C944.957 513.378 944.165 512.617 943.267 511.997C942.825 511.691 942.309 511.51 941.772 511.473C940.785 511.457 939.721 509.763 939.006 507.904C938.433 506.597 938.161 505.178 938.21 503.752C938.557 501.807 934.526 499.573 933.2 497.234C931.461 494.488 928.764 492.483 925.629 491.606C923.297 490.898 921.06 489.909 918.969 488.659Z" fill="#0E1F31"></path><path d="M920.277 488.938C922.257 490.12 924.374 491.058 926.582 491.727C929.548 492.557 932.1 494.453 933.745 497.051C934.996 499.264 938.809 501.377 938.48 503.218C938.434 504.567 938.692 505.909 939.234 507.146C939.909 508.905 940.916 510.507 941.85 510.522C942.358 510.558 942.847 510.731 943.264 511.022L945.483 513.154C944.102 513.809 942.525 513.923 941.064 513.475C938.934 512.652 938.47 513.75 935.417 512.495C932.363 511.24 930.863 513.066 929.336 512.438C927.81 511.809 926.885 509.4 926.173 507.951C925.462 506.502 923.053 505.722 922.704 503.031C922.355 500.34 924.307 499.591 922.156 495.227C920.004 490.863 920.277 488.938 920.277 488.938Z" fill="#152846"></path><path d="M893.398 525.4C893.398 525.4 894.027 527.557 893.492 528.7C893.492 528.7 893.34 528.885 893.555 530.361C893.771 531.837 892.348 533.985 892.348 533.985C892.348 533.985 891.045 535.611 890.803 535.941C890.562 536.271 889.659 537.109 889.742 537.952C889.825 538.795 888.327 539.827 888.327 539.827C887.601 539.461 886.829 539.195 886.032 539.034C885.437 539.167 884.816 539.122 884.246 538.905C883.348 539.155 882.427 539.315 881.497 539.382C880.508 539.382 880.528 540.261 879.603 540.216C879.071 540.199 878.555 540.025 878.121 539.716C878.634 539.37 879.088 538.945 879.466 538.456C879.652 538.215 879.77 537.928 879.806 537.626C879.843 537.07 880.834 536.516 881.91 536.167C882.668 535.88 883.48 535.767 884.287 535.835C885.382 536.087 886.764 533.874 888.128 533.195C889.735 532.291 890.949 530.825 891.535 529.08C892.003 527.782 892.629 526.546 893.398 525.4Z" fill="#0E1F31"></path><path d="M893.201 526.13C892.473 527.214 891.882 528.384 891.439 529.612C890.884 531.263 889.735 532.65 888.214 533.504C886.924 534.147 885.616 536.24 884.582 536.004C883.818 535.94 883.049 536.047 882.332 536.318C881.316 536.649 880.378 537.172 880.342 537.699C880.308 537.985 880.197 538.256 880.021 538.484L878.749 539.676C878.417 538.877 878.397 537.983 878.693 537.17C879.22 535.992 878.611 535.698 879.41 534.009C880.21 532.32 879.217 531.421 879.617 530.577C880.017 529.733 881.409 529.277 882.252 528.919C883.094 528.561 883.604 527.219 885.141 527.1C886.677 526.981 887.045 528.1 889.583 527.014C892.122 525.928 893.201 526.13 893.201 526.13Z" fill="#152846"></path><path d="M224.348 1002.27C213.905 1006.63 200.426 1006.89 200.426 1006.89L224.348 1002.27Z" fill="#0E1F31"></path><path d="M224.348 1002.27C213.905 1006.63 200.426 1006.89 200.426 1006.89L224.348 1002.27Z" fill="#0E1F31"></path><path d="M499.841 1155.81C479.076 1183.42 486.903 1192.02 479.587 1204.88C479.377 1205.25 479.156 1205.62 478.916 1206H322.137C322.127 1205.63 322.127 1205.26 322.127 1204.88C322.026 1193.74 323.229 1175.93 330.254 1159.57C337.53 1142.57 341.709 1130.28 350.829 1124.71L344.615 1130.43C344.615 1130.43 345.327 1159.57 364.168 1163.33C383.008 1167.09 401.859 1174.61 409.395 1182.13C416.932 1189.65 416.932 1197.17 443.309 1174.61C469.686 1152.05 507.568 1132.27 513.1 1132.76C513.932 1136.56 509.823 1142.53 499.841 1155.81Z" fill="#0E1F31"></path><path d="M513.105 1132.72V1132.76C507.565 1132.27 469.691 1152.05 443.312 1174.61C416.933 1197.17 416.932 1189.65 409.394 1182.13C401.857 1174.61 383.014 1167.09 364.172 1163.33C345.329 1159.57 344.613 1130.43 344.613 1130.43L350.827 1124.71L350.902 1124.68C355.913 1121.67 362.396 1120.65 371.704 1121.97C398.084 1125.73 424.464 1114.45 432 1110.69C439.537 1106.93 462.149 1103.17 488.529 1118.21C500.512 1125.05 508.615 1127.23 511.743 1130.39L511.781 1130.43L513.105 1132.72Z" fill="#0E1F31"></path><path d="M642.352 803.206C637.172 810.098 639.762 811.82 637.172 815.266C634.581 818.712 627.676 831.633 621.638 829.91C615.6 828.187 617.322 823.019 609.552 823.019C601.782 823.019 601.782 816.989 601.782 816.989C601.342 812.607 601.933 808.182 603.509 804.068C605.175 800.174 606.133 797.357 608.219 796.082L606.794 797.392C606.794 797.392 606.958 804.068 611.275 804.929C615.591 805.79 619.907 807.513 621.634 809.236C623.361 810.959 623.361 812.682 629.404 807.513C635.447 802.344 644.123 797.813 645.391 797.926C645.578 798.8 644.64 800.165 642.352 803.206Z" fill="#0E1F31"></path><path d="M645.39 797.917V797.926C644.122 797.814 635.445 802.345 629.403 807.513C623.361 812.681 623.36 810.959 621.633 809.236C619.906 807.513 615.59 805.791 611.274 804.929C606.957 804.067 606.793 797.392 606.793 797.392L608.218 796.082L608.235 796.074C609.701 795.314 611.388 795.094 613 795.454C619.043 796.315 625.087 793.731 626.812 792.869C628.538 792.007 633.719 791.147 639.762 794.592C642.507 796.16 644.363 796.659 645.08 797.383L645.088 797.392L645.39 797.917Z" fill="#0E1F31"></path><path d="M1343.29 544.911C1338.82 550.852 1341.05 552.336 1338.82 555.31C1336.59 558.284 1330.64 569.42 1325.43 567.935C1320.22 566.45 1321.7 561.995 1315 561.995C1308.3 561.995 1308.31 556.794 1308.31 556.794C1307.93 553.016 1308.44 549.203 1309.79 545.656C1311.23 542.3 1312.06 539.87 1313.86 538.771L1312.63 539.901C1312.63 539.901 1312.77 545.656 1316.49 546.401C1320.21 547.146 1323.93 548.629 1325.42 550.114C1326.91 551.599 1326.91 553.084 1332.12 548.629C1337.33 544.174 1344.81 540.266 1345.9 540.362C1346.07 541.107 1345.26 542.289 1343.29 544.911Z" fill="#0E1F31"></path><path d="M1345.9 540.351V540.358C1344.81 540.258 1337.33 544.168 1332.12 548.624C1326.91 553.08 1326.91 551.594 1325.42 550.109C1323.93 548.624 1320.21 547.138 1316.49 546.396C1312.77 545.654 1312.63 539.896 1312.63 539.896L1313.86 538.767L1313.87 538.76C1315.14 538.105 1316.59 537.915 1317.98 538.225C1323.19 538.968 1328.4 536.74 1329.89 535.997C1331.37 535.254 1335.84 534.512 1341.05 537.482C1343.42 538.834 1345.02 539.265 1345.64 539.889V539.896L1345.9 540.351Z" fill="#0E1F31"></path><path d="M1131.41 952.206C1126.23 959.098 1128.82 960.82 1126.23 964.266C1123.64 967.712 1116.73 980.633 1110.69 978.91C1104.65 977.187 1106.38 972.019 1098.61 972.019C1090.84 972.019 1090.84 965.989 1090.84 965.989C1090.4 961.607 1090.99 957.182 1092.56 953.068C1094.23 949.174 1095.19 946.357 1097.27 945.082L1095.85 946.392C1095.85 946.392 1096.01 953.068 1100.33 953.929C1104.65 954.79 1108.96 956.513 1110.69 958.236C1112.42 959.959 1112.42 961.682 1118.46 956.513C1124.5 951.344 1133.18 946.813 1134.45 946.926C1134.63 947.8 1133.69 949.165 1131.41 952.206Z" fill="#0E1F31"></path><path d="M1134.45 946.917V946.926C1133.18 946.814 1124.5 951.345 1118.46 956.513C1112.42 961.681 1112.41 959.959 1110.69 958.236C1108.96 956.513 1104.64 954.791 1100.33 953.929C1096.01 953.067 1095.85 946.392 1095.85 946.392L1097.27 945.082L1097.29 945.074C1098.76 944.314 1100.44 944.094 1102.06 944.454C1108.1 945.315 1114.14 942.731 1115.87 941.869C1117.59 941.007 1122.77 940.147 1128.82 943.592C1131.56 945.16 1133.42 945.659 1134.13 946.383L1134.14 946.392L1134.45 946.917Z" fill="#0E1F31"></path><path d="M1041.29 963.368C1049.91 974.836 1045.6 977.703 1049.91 983.437C1054.22 989.171 1065.71 1010.67 1075.77 1007.81C1085.82 1004.94 1082.95 996.338 1095.88 996.338C1108.81 996.338 1108.81 986.304 1108.81 986.304C1108.81 986.304 1110.24 974.836 1105.93 964.804C1103.16 958.325 1101.57 953.637 1098.09 951.516L1100.46 953.694C1100.46 953.694 1100.19 964.804 1093 966.237C1085.82 967.67 1078.64 970.537 1075.77 973.405C1072.9 976.273 1072.89 979.138 1062.84 970.538C1052.78 961.938 1038.35 954.397 1036.23 954.583C1035.92 956.029 1037.49 958.308 1041.29 963.368Z" fill="#0E1F31"></path><path d="M1036.23 954.567V954.581C1038.35 954.395 1052.78 961.935 1062.84 970.536C1072.9 979.137 1072.9 976.269 1075.77 973.403C1078.64 970.537 1085.82 967.669 1093.01 966.235C1100.19 964.801 1100.46 953.692 1100.46 953.692L1098.09 951.514L1098.06 951.499C1096.15 950.352 1093.68 949.965 1090.13 950.467C1080.08 951.901 1070.02 947.6 1067.15 946.167C1064.27 944.734 1055.65 943.3 1045.6 949.034C1041.03 951.642 1037.94 952.474 1036.75 953.678L1036.74 953.692L1036.23 954.567Z" fill="#0E1F31"></path><path d="M1192.81 675.571C1188.48 682.552 1186.05 680.857 1183.88 684.348C1181.72 687.839 1172.63 698.448 1176.26 703.195C1179.89 707.942 1183.89 704.622 1186.59 711.502C1189.29 718.382 1194.65 716.286 1194.65 716.286C1198.7 715.153 1202.43 713.092 1205.54 710.267C1208.42 707.439 1210.6 705.611 1211.01 703.318L1210.34 705.035C1210.34 705.035 1204.34 707.209 1202.08 703.687C1199.81 700.165 1196.78 696.941 1194.65 696.011C1192.51 695.081 1190.98 695.68 1193.48 688.533C1195.97 681.386 1196.98 672.133 1196.45 671.045C1195.61 671.179 1194.72 672.488 1192.81 675.571Z" fill="#0E1F31"></path><path d="M1196.46 671.042H1196.45C1196.99 672.127 1195.97 681.383 1193.48 688.53C1190.98 695.677 1192.51 695.078 1194.65 696.008C1196.78 696.938 1199.81 700.161 1202.08 703.684C1204.34 707.207 1210.34 705.032 1210.34 705.032L1211.01 703.315V703.3C1211.17 701.738 1210.78 700.168 1209.9 698.865C1207.04 693.814 1207.24 687.565 1207.4 685.737C1207.56 683.909 1206.53 679.024 1201.37 674.87C1199.02 672.985 1197.93 671.515 1197.04 671.132H1197.03L1196.46 671.042Z" fill="#0E1F31"></path><path d="M1098.33 459.526C1095.91 463.437 1094.54 462.488 1093.33 464.444C1092.12 466.4 1087.03 472.344 1089.06 475.004C1091.1 477.664 1093.33 475.804 1094.85 479.658C1096.36 483.512 1099.36 482.338 1099.36 482.338C1101.63 481.703 1103.72 480.548 1105.47 478.966C1107.08 477.381 1108.3 476.357 1108.53 475.073L1108.15 476.034C1108.15 476.034 1104.79 477.253 1103.52 475.279C1102.25 473.305 1100.56 471.5 1099.36 470.979C1098.17 470.458 1097.31 470.794 1098.71 466.79C1100.1 462.786 1100.67 457.599 1100.37 456.99C1099.9 457.066 1099.4 457.8 1098.33 459.526Z" fill="#0E1F31"></path><path d="M1100.38 456.989C1100.68 457.596 1100.11 462.783 1098.71 466.789C1097.31 470.795 1098.17 470.457 1099.37 470.978C1100.56 471.499 1102.26 473.305 1103.53 475.278C1104.8 477.251 1108.16 476.033 1108.16 476.033L1108.53 475.072V475.061C1108.63 474.186 1108.41 473.307 1107.91 472.577C1106.77 470.302 1106.29 467.755 1106.51 465.221C1106.6 464.197 1106.02 461.46 1103.13 459.133C1102.36 458.391 1101.55 457.69 1100.7 457.033L1100.38 456.989Z" fill="#0E1F31"></path><path d="M999.751 486.607C998.033 484.501 998.828 483.926 997.969 482.873C997.11 481.82 994.774 477.835 992.892 478.453C991.01 479.071 991.618 480.677 989.171 480.774C986.724 480.871 986.798 482.774 986.798 482.774C986.713 484.16 986.953 485.546 987.499 486.823C988.073 488.029 988.409 488.904 989.084 489.28L988.619 488.885C988.619 488.885 988.587 486.78 989.936 486.455C991.11 486.227 992.21 485.718 993.143 484.97C993.665 484.406 993.644 483.863 995.611 485.416C997.146 486.658 998.892 487.614 1000.77 488.238C1000.82 487.956 1000.51 487.537 999.751 486.607Z" fill="#0E1F31"></path><path d="M1000.77 488.236C998.899 487.612 997.152 486.656 995.617 485.414C993.65 483.861 993.671 484.404 993.149 484.968C992.217 485.716 991.116 486.225 989.942 486.453C988.593 486.778 988.625 488.883 988.625 488.883L989.09 489.278C989.561 489.499 990.096 489.548 990.599 489.415C992.092 489.22 993.609 489.442 994.982 490.057C995.667 490.254 996.388 490.294 997.091 490.172C997.794 490.051 998.46 489.772 999.04 489.357C999.602 489.07 1000.15 488.755 1000.68 488.412L1000.77 488.236Z" fill="#0E1F31"></path><path d="M849.115 1068.25C842.031 1078.86 847.647 1078.29 844.104 1083.6C840.562 1088.9 832.614 1106.47 820.429 1109.91C808.245 1113.34 809.456 1107.17 794.68 1113.61C779.904 1120.06 777.483 1114.53 777.483 1114.53C776.155 1112.62 775.291 1110.42 774.96 1108.12C774.63 1105.82 774.842 1103.47 775.579 1101.26C777.183 1096.31 777.877 1092.93 781.339 1090.03L779.156 1092.42C779.156 1092.42 782.146 1098.4 790.701 1095.61C799.255 1092.82 808.156 1090.81 812.131 1090.96C816.107 1091.11 816.797 1092.69 826.216 1082.94C835.634 1073.19 850.315 1061.85 852.773 1060.9C853.489 1061.54 852.249 1063.57 849.115 1068.25Z" fill="#0E1F31"></path><path d="M852.777 1060.89C850.319 1061.84 835.64 1073.19 826.22 1082.94C816.8 1092.68 816.11 1091.11 812.136 1090.96C808.161 1090.81 799.26 1092.81 790.705 1095.61C782.151 1098.4 779.16 1092.42 779.16 1092.42L781.343 1090.03L781.373 1090.01C784.027 1088.01 787.009 1086.48 790.186 1085.49C802.025 1081.27 812.479 1073.89 815.418 1071.67C818.356 1069.45 827.861 1064.36 840.735 1062.51C846.585 1061.67 850.316 1060.59 851.969 1060.66H851.989L852.777 1060.89Z" fill="#0E1F31"></path><path d="M556.194 1001.74L555.844 1001.14C556.014 1001.3 556.135 1001.51 556.194 1001.74Z" fill="#0E1F31"></path><path d="M1951 628.81V1206H1546.43L1546.55 1204.88L1551.51 1159.74C1551.51 1159.74 1557.56 1099.11 1584.69 1017.82C1596.61 981.939 1611.15 946.979 1628.19 913.22C1651.01 868.23 1680.39 822.1 1718.14 779.6C1730.45 765.734 1743.45 752.51 1757.12 739.98C1811.64 689.872 1876.53 652.33 1947.2 630.01C1948.46 629.6 1949.73 629.2 1951 628.81Z" fill="#152846"></path><path d="M1644.53 902.2L1596.06 934.892L1573.9 1001.92C1573.9 1001.92 1633.69 1090.35 1636.88 1092.98L1644.53 902.2Z" fill="#152846"></path><path d="M1951 619.63V664.85L1947.2 665.74L1822.05 695.26L1832.63 682.65L1867.19 641.49L1941 609.63L1947.2 615.83L1951 619.63Z" fill="#152846"></path><path d="M1718.14 779.601L1719.41 762.603L1749.62 736.404L1777.47 749.707L1718.14 779.601Z" fill="#152846"></path><path d="M1951 867.35V1033.57C1949.74 1034.7 1948.47 1035.81 1947.2 1036.9C1900.27 1076.97 1843.3 1087.4 1815.1 1059.25C1784.57 1028.79 1799.32 964.69 1848.05 916.07C1879.05 885.14 1916.33 867.93 1947.2 867.33C1948.49 867.31 1949.75 867.31 1951 867.35Z" fill="#0E1F31"></path><path d="M1516.27 605.017C1516.28 605.488 1516.13 605.948 1515.86 606.333C1515.59 606.719 1515.21 607.011 1514.76 607.169L1505.57 610.498L1502.24 619.668C1502.07 620.106 1501.78 620.483 1501.39 620.749C1501.01 621.015 1500.55 621.158 1500.08 621.158C1499.61 621.158 1499.15 621.015 1498.77 620.749C1498.38 620.483 1498.09 620.106 1497.92 619.668L1494.59 610.498L1485.4 607.169C1484.96 607.003 1484.58 606.709 1484.32 606.325C1484.05 605.941 1483.91 605.485 1483.91 605.019C1483.91 604.553 1484.05 604.097 1484.32 603.713C1484.58 603.329 1484.96 603.035 1485.4 602.869L1494.59 599.54L1497.92 590.37C1498.09 589.932 1498.38 589.555 1498.77 589.289C1499.15 589.023 1499.61 588.88 1500.08 588.88C1500.55 588.88 1501.01 589.023 1501.39 589.289C1501.78 589.555 1502.07 589.932 1502.24 590.37L1505.57 599.54L1514.76 602.869C1515.21 603.027 1515.59 603.318 1515.86 603.703C1516.13 604.088 1516.28 604.547 1516.27 605.017Z" fill="#152846"></path><path d="M1924.15 510.172C1924.16 510.784 1923.97 511.383 1923.62 511.885C1923.27 512.387 1922.77 512.767 1922.19 512.972L1910.24 517.3L1905.91 529.221C1905.69 529.793 1905.31 530.287 1904.81 530.636C1904.31 530.985 1903.71 531.172 1903.1 531.172C1902.49 531.172 1901.89 530.985 1901.39 530.636C1900.89 530.287 1900.51 529.793 1900.29 529.221L1895.96 517.3L1884.01 512.972C1883.44 512.761 1882.94 512.379 1882.59 511.878C1882.24 511.378 1882.05 510.782 1882.05 510.172C1882.05 509.562 1882.24 508.966 1882.59 508.466C1882.94 507.965 1883.44 507.583 1884.01 507.372L1895.96 503.044L1900.29 491.124C1900.51 490.551 1900.89 490.057 1901.39 489.708C1901.89 489.359 1902.49 489.172 1903.1 489.172C1903.71 489.172 1904.31 489.359 1904.81 489.708C1905.31 490.057 1905.69 490.551 1905.91 491.124L1910.24 503.044L1922.19 507.372C1922.77 507.578 1923.27 507.958 1923.62 508.459C1923.97 508.961 1924.16 509.56 1924.15 510.172Z" fill="#0E1F31"></path><path d="M212.454 122.172C212.459 122.784 212.272 123.383 211.92 123.885C211.569 124.387 211.069 124.767 210.491 124.972L198.544 129.3L194.206 141.221C193.995 141.793 193.612 142.287 193.11 142.636C192.609 142.985 192.012 143.172 191.4 143.172C190.789 143.172 190.192 142.985 189.69 142.636C189.189 142.287 188.806 141.793 188.594 141.221L184.261 129.3L172.314 124.97C171.741 124.759 171.246 124.377 170.896 123.876C170.547 123.376 170.359 122.78 170.359 122.17C170.359 121.56 170.547 120.964 170.896 120.464C171.246 119.963 171.741 119.582 172.314 119.37L184.261 115.042L188.598 103.122C188.81 102.549 189.192 102.055 189.694 101.706C190.196 101.357 190.793 101.17 191.404 101.17C192.016 101.17 192.613 101.357 193.115 101.706C193.617 102.055 193.999 102.549 194.21 103.122L198.548 115.042L210.495 119.37C211.072 119.576 211.571 119.957 211.922 120.459C212.273 120.961 212.459 121.56 212.454 122.172Z" fill="#152846"></path><path d="M1093.36 49.1704C1093.36 49.5785 1093.24 49.9773 1093 50.3115C1092.77 50.6457 1092.43 50.8988 1092.05 51.0354L1084.08 53.9214L1081.19 61.8684C1081.05 62.2491 1080.8 62.5773 1080.46 62.8091C1080.13 63.0409 1079.73 63.1651 1079.32 63.1651C1078.92 63.1651 1078.52 63.0409 1078.18 62.8091C1077.85 62.5773 1077.59 62.2491 1077.45 61.8684L1074.56 53.9214L1066.6 51.0354C1066.22 50.894 1065.89 50.6395 1065.65 50.306C1065.42 49.9726 1065.3 49.5761 1065.3 49.1699C1065.3 48.7638 1065.42 48.3673 1065.65 48.0339C1065.89 47.7004 1066.22 47.4459 1066.6 47.3044L1074.56 44.4194L1077.45 36.4724C1077.59 36.0918 1077.85 35.7635 1078.18 35.5318C1078.52 35.3 1078.92 35.1758 1079.32 35.1758C1079.73 35.1758 1080.13 35.3 1080.46 35.5318C1080.8 35.7635 1081.05 36.0918 1081.19 36.4724L1084.08 44.4194L1092.05 47.3044C1092.43 47.4414 1092.77 47.6947 1093 48.0291C1093.24 48.3634 1093.36 48.7623 1093.36 49.1704Z" fill="#0E1F31"></path><path d="M1063.28 1136.53C1063.28 1136.89 1063.17 1137.25 1062.95 1137.56C1062.74 1137.86 1062.44 1138.09 1062.09 1138.21L1054.9 1140.82L1052.29 1147.99C1052.16 1148.34 1051.93 1148.63 1051.63 1148.84C1051.33 1149.05 1050.97 1149.16 1050.6 1149.16C1050.23 1149.16 1049.87 1149.05 1049.57 1148.84C1049.27 1148.63 1049.04 1148.34 1048.91 1147.99L1046.3 1140.82L1039.11 1138.21C1038.76 1138.08 1038.47 1137.85 1038.26 1137.55C1038.05 1137.25 1037.94 1136.89 1037.94 1136.53C1037.94 1136.16 1038.05 1135.8 1038.26 1135.5C1038.47 1135.2 1038.76 1134.97 1039.11 1134.84L1046.3 1132.23L1048.91 1125.06C1049.04 1124.71 1049.27 1124.42 1049.57 1124.21C1049.87 1124 1050.23 1123.89 1050.6 1123.89C1050.97 1123.89 1051.33 1124 1051.63 1124.21C1051.93 1124.42 1052.16 1124.71 1052.29 1125.06L1054.9 1132.23L1062.09 1134.84C1062.44 1134.96 1062.74 1135.19 1062.95 1135.49C1063.16 1135.8 1063.28 1136.16 1063.28 1136.53Z" fill="#152846"></path></g></g><defs><clipPath id="clip0_319_845"><rect width="1951" height="1206" fill="white"></rect></clipPath></defs></svg> 