<?xml version="1.0" encoding="UTF-8"?> <svg xmlns="http://www.w3.org/2000/svg" width="1228" height="466" viewBox="0 0 1228 466" fill="none"><g clip-path="url(#clip0_19_15517)"><path d="M1.54046 10.9999C1.56126 4.92484 6.50296 0.0168615 12.5781 0.0376613L1216.49 4.15958C1222.56 4.18038 1227.47 9.12208 1227.45 15.1972L1225.95 454.361C1225.93 460.436 1220.99 465.344 1214.91 465.323L10.9992 461.201C4.92407 461.18 0.016069 456.239 0.0368687 450.163L1.54046 10.9999Z" fill="#1C3350"></path><path d="M1.54046 10.9999C1.56126 4.92484 6.50296 0.0168615 12.5781 0.0376613L1216.49 4.15958C1222.56 4.18038 1227.47 9.12208 1227.45 15.1972L1225.95 454.361C1225.93 460.436 1220.99 465.344 1214.91 465.323L10.9992 461.201C4.92407 461.18 0.016069 456.239 0.0368687 450.163L1.54046 10.9999Z" fill="#1C3350"></path><g clip-path="url(#clip1_19_15517)"><mask id="mask0_19_15517" style="mask-type:luminance" maskUnits="userSpaceOnUse" x="-3" y="-123" width="1233" height="762"><path d="M1230 -123H-3V639H1230V-123Z" fill="white"></path></mask><g mask="url(#mask0_19_15517)"><path d="M1230 -123H6.36133V639H1230V-123Z" fill="#0A1727"></path><path d="M1247 -120H-3V654H1247V-120Z" fill="#1C3350"></path><path d="M150.287 215.403C150.28 233.599 145.709 251.503 136.989 267.485C128.27 283.466 115.681 297.017 100.368 306.901C85.0553 316.787 67.5064 322.692 49.3209 324.079C31.1351 325.466 12.8905 322.291 -3.75036 314.842C-4.13037 314.678 -4.51038 314.501 -4.88406 314.331C-7.69616 313.029 -10.4386 311.616 -13.1113 310.091C-10.4512 306.155 -7.70882 302.29 -4.88406 298.497V116.476C-4.51038 116.305 -4.13037 116.128 -3.75036 115.964C12.8886 108.49 31.1399 105.294 49.3358 106.67C67.5317 108.045 85.092 113.947 100.413 123.837C115.732 133.727 128.324 147.29 137.037 163.285C145.749 179.28 150.305 197.199 150.287 215.403Z" fill="#0E1F31"></path><path d="M652.835 87.3303C659.654 87.3303 665.184 81.8143 665.184 75.0094C665.184 68.2044 659.654 62.6885 652.835 62.6885C646.01 62.6885 640.486 68.2044 640.486 75.0094C640.486 81.8143 646.01 87.3303 652.835 87.3303Z" fill="#0E1F31"></path><path d="M454.245 552.163C446.935 573.776 436.996 594.347 424.666 613.402C424.537 613.605 424.407 613.802 424.277 614H-5.32217V613.402H-6.25202V314.828C-8.55848 313.728 -10.8078 312.533 -13 311.244C-10.8182 307.916 -8.56887 304.649 -6.25202 301.441C-5.94553 301.014 -5.63385 300.587 -5.32217 300.159C28.2711 254.231 75.1869 220.467 128.654 203.74C182.121 187.012 239.374 188.187 292.149 207.094C429.576 256.351 502.146 410.842 454.245 552.163Z" fill="#152846"></path><path d="M560.311 483.051C548.087 495.798 548.644 494.136 543.645 503.557C538.645 512.979 542.811 512.701 536.145 516.581C529.479 520.46 515.034 535.978 512.813 534.872C510.591 533.76 493.924 530.437 488.924 533.76C483.925 537.09 481.704 531.543 457.814 545.955C433.925 560.367 428.371 555.932 428.371 555.932C428.371 555.932 415.038 543.188 409.483 534.316C403.928 525.452 396.15 524.896 393.928 519.911C391.705 514.925 385.039 501.068 380.595 498.297C376.151 495.526 377.817 492.201 363.373 487.213C363.373 487.213 356.154 485.55 354.207 479.731C354.207 479.731 361.984 455.901 365.318 453.131C368.651 450.361 375.873 437.059 376.984 433.179C378.095 429.3 398.65 408.24 408.651 409.348C408.651 409.348 439.762 414.89 445.317 426.528C450.872 438.166 469.205 455.902 471.981 457.564C474.757 459.227 471.981 464.708 471.981 464.708C471.981 464.708 487.536 476.408 502.535 475.299C517.536 474.19 516.976 484.166 531.979 483.612C546.982 483.058 553.088 488.039 560.311 483.051Z" fill="#0E1F31"></path><path d="M560.311 483.051C553.091 488.039 546.978 483.051 531.978 483.605C516.979 484.159 517.538 474.184 502.535 475.292C487.532 476.4 471.98 464.701 471.98 464.701C471.98 464.701 474.758 459.22 471.98 457.558C469.202 455.895 450.87 438.16 445.316 426.522C439.762 414.883 408.65 409.341 408.65 409.341C418.651 410.45 407.539 406.016 428.65 411.004C428.65 411.004 457.538 408.787 463.649 406.571C469.759 404.354 485.871 419.317 485.871 419.317C485.871 419.317 486.981 424.305 495.87 424.305C504.758 424.305 512.536 436.5 517.536 438.16C522.536 439.821 539.202 445.363 546.98 455.895C554.757 466.427 572.533 470.304 560.311 483.051Z" fill="#0E1F31"></path><path d="M747.076 154.631C743.909 157.933 744.048 157.502 742.753 159.943C741.464 162.384 742.538 162.312 740.813 163.317C739.087 164.321 735.346 168.341 734.771 168.055C734.196 167.77 729.879 166.907 728.584 167.769C727.288 168.63 726.713 167.194 720.526 170.928C714.332 174.661 712.898 173.512 712.898 173.512C712.898 173.512 709.441 170.21 708 167.913C706.565 165.616 704.549 165.472 703.974 164.18C703.399 162.888 701.674 159.299 700.517 158.582C699.367 157.864 699.803 157.002 696.062 155.71C696.062 155.71 694.191 155.28 693.686 153.773C693.686 153.773 695.702 147.6 696.561 146.882C697.427 146.164 699.298 142.718 699.588 141.713C699.873 140.709 705.2 135.253 707.785 135.54C707.785 135.54 715.843 136.976 717.29 139.99C718.731 143.005 723.477 147.6 724.198 148.03C724.912 148.46 724.198 149.88 724.198 149.88C724.198 149.88 728.223 152.913 732.11 152.624C735.997 152.335 735.851 154.921 739.738 154.777C743.625 154.634 745.205 155.926 747.076 154.631Z" fill="#152846"></path><path d="M747.07 154.631C745.199 155.923 743.619 154.631 739.732 154.775C735.846 154.918 735.991 152.334 732.104 152.621C728.218 152.909 724.192 149.878 724.192 149.878C724.192 149.878 724.906 148.458 724.192 148.027C723.471 147.596 718.719 143.003 717.284 139.988C715.843 136.972 707.779 135.538 707.779 135.538C710.37 135.824 707.495 134.676 712.962 135.968C712.962 135.968 720.444 135.394 722.03 134.82C723.61 134.245 727.788 138.122 727.788 138.122C727.788 138.122 728.072 139.414 730.373 139.414C732.679 139.414 734.689 142.573 735.985 143.003C737.28 143.432 741.597 144.869 743.613 147.597C745.629 150.325 750.236 151.332 747.07 154.631Z" fill="#0E1F31"></path><path d="M595.385 173.029C596.858 174.566 596.791 174.366 597.394 175.501C597.997 176.636 597.494 176.604 598.298 177.071C599.101 177.539 600.843 179.409 601.111 179.276C601.378 179.142 603.39 178.741 603.989 179.142C604.588 179.544 604.86 178.875 607.74 180.612C610.62 182.349 611.287 181.812 611.287 181.812C612.125 181.016 612.888 180.144 613.564 179.207C614.234 178.138 615.172 178.069 615.439 177.47C615.707 176.87 616.511 175.195 617.047 174.865C617.583 174.534 617.381 174.129 619.122 173.528C619.363 173.472 619.588 173.362 619.78 173.206C619.971 173.049 620.124 172.851 620.227 172.626C620.227 172.626 619.29 169.754 618.888 169.42C618.294 168.698 617.82 167.886 617.485 167.015C617.35 166.547 614.873 164.008 613.667 164.142C613.667 164.142 609.917 164.81 609.247 166.213C608.39 167.629 607.304 168.893 606.032 169.954C605.698 170.154 606.032 170.815 606.032 170.815C606.032 170.815 604.158 172.226 602.35 172.092C600.542 171.959 600.609 173.161 598.803 173.094C596.997 173.028 596.255 173.63 595.385 173.029Z" fill="#0E1F31"></path><path d="M595.383 173.03C596.253 173.631 596.99 173.03 598.798 173.097C600.606 173.164 600.539 171.96 602.345 172.095C604.151 172.23 606.028 170.818 606.028 170.818C606.028 170.818 605.693 170.157 606.028 169.957C607.299 168.896 608.386 167.631 609.243 166.216C609.912 164.812 613.662 164.144 613.662 164.144C612.459 164.278 613.797 163.744 611.252 164.345C609.835 164.254 608.426 164.075 607.032 163.81C606.296 163.543 604.354 165.347 604.354 165.347C604.354 165.347 604.22 165.948 603.15 165.948C602.082 165.948 601.141 167.418 600.538 167.618C599.935 167.819 597.926 168.487 596.992 169.756C596.057 171.026 593.909 171.493 595.383 173.03Z" fill="#152846"></path><path d="M571.209 196.639C570.512 197.369 570.541 197.271 570.255 197.813C569.969 198.355 570.208 198.336 569.827 198.558C569.445 198.78 568.618 199.668 568.491 199.605C568.051 199.453 567.576 199.431 567.124 199.542C566.837 199.731 566.71 199.416 565.343 200.237C563.977 201.058 563.658 200.806 563.658 200.806C563.26 200.428 562.899 200.014 562.578 199.569C562.261 199.064 561.817 199.029 561.687 198.748C561.51 198.293 561.251 197.874 560.924 197.511C560.67 197.352 560.765 197.162 559.939 196.879C559.824 196.852 559.717 196.799 559.626 196.725C559.535 196.651 559.463 196.557 559.414 196.45C559.571 195.922 559.783 195.412 560.047 194.928C560.33 194.586 560.555 194.2 560.715 193.786C560.779 193.564 561.955 192.359 562.527 192.422C562.527 192.422 564.307 192.738 564.625 193.405C565.032 194.078 565.548 194.678 566.152 195.182C566.311 195.277 566.152 195.59 566.152 195.59C566.658 195.967 567.269 196.179 567.9 196.197C568.759 196.134 568.727 196.702 569.585 196.673C570.443 196.643 570.796 196.925 571.209 196.639Z" fill="#0E1F31"></path><path d="M571.208 196.639C570.796 196.925 570.446 196.639 569.587 196.671C568.729 196.704 568.764 196.132 567.902 196.196C567.271 196.177 566.661 195.966 566.154 195.589C566.154 195.589 566.313 195.273 566.154 195.18C565.55 194.677 565.034 194.076 564.627 193.404C564.311 192.738 562.529 192.421 562.529 192.421C563.099 192.484 562.465 192.231 563.674 192.516C564.346 192.473 565.015 192.389 565.677 192.264C566.027 192.137 566.949 192.993 566.949 192.993C566.949 192.993 567.012 193.279 567.519 193.279C568.025 193.279 568.472 193.974 568.759 194.071C569.403 194.249 569.986 194.6 570.444 195.087C570.89 195.688 571.909 195.91 571.208 196.639Z" fill="#152846"></path><path d="M542.151 212.5C541.672 212.999 541.694 212.934 541.498 213.303C541.302 213.672 541.465 213.661 541.204 213.813C540.943 213.965 540.378 214.571 540.291 214.53C539.99 214.425 539.665 214.41 539.355 214.486C538.921 214.563 538.506 214.725 538.137 214.964C537.202 215.528 536.984 215.354 536.984 215.354C536.712 215.095 536.464 214.812 536.244 214.508C536.027 214.161 535.723 214.139 535.635 213.943C535.513 213.632 535.336 213.346 535.113 213.097C534.94 212.989 535.005 212.858 534.439 212.663C534.361 212.645 534.288 212.609 534.225 212.558C534.164 212.507 534.114 212.443 534.08 212.37C534.188 212.009 534.334 211.66 534.516 211.329C534.708 211.094 534.862 210.83 534.972 210.547C535.015 210.396 535.821 209.571 536.212 209.614C536.212 209.614 537.43 209.831 537.648 210.287C537.926 210.747 538.278 211.157 538.692 211.502C538.8 211.565 538.692 211.782 538.692 211.782C539.038 212.039 539.456 212.184 539.888 212.197C540.476 212.153 540.454 212.544 541.041 212.522C541.629 212.501 541.868 212.697 542.151 212.5Z" fill="#0E1F31"></path><path d="M542.149 212.5C541.867 212.695 541.628 212.5 541.041 212.522C540.453 212.544 540.475 212.153 539.887 212.197C539.455 212.184 539.037 212.039 538.691 211.782C538.691 211.782 538.8 211.568 538.691 211.502C538.278 211.157 537.925 210.747 537.647 210.287C537.429 209.831 536.211 209.614 536.211 209.614C536.602 209.658 536.167 209.484 536.994 209.677C537.454 209.647 537.912 209.59 538.365 209.504C538.604 209.417 539.235 210.003 539.235 210.003C539.235 210.003 539.279 210.198 539.626 210.198C539.974 210.198 540.278 210.675 540.475 210.74C540.915 210.862 541.314 211.103 541.628 211.436C541.932 211.849 542.628 212.002 542.149 212.5Z" fill="#152846"></path><path d="M750.755 375.343C748.771 386.269 748.48 385.203 749.131 391.882C749.782 398.562 751.874 396.974 749.725 401.32C747.57 405.665 745.383 418.815 743.829 419.002C742.274 419.189 732.365 423.212 730.898 426.689C729.426 430.166 726.335 428.025 718.802 443.863C711.269 459.7 706.807 459.295 706.807 459.295C706.807 459.295 695.368 457.215 689.364 454.481C683.367 451.746 679.088 454.147 676.181 452.297C673.28 450.446 664.963 445.476 661.665 445.559C658.366 445.642 658.081 443.319 648.759 445.699C648.759 445.699 644.392 447.325 641.346 444.941C641.346 444.941 637.144 429.731 637.927 427.123C638.717 424.515 637.883 415.027 637.118 412.605C636.347 410.182 639.823 392.007 645.46 389.126C645.46 389.126 663.725 381.268 670.696 385.458C677.66 389.648 693.46 392.617 695.495 392.529C697.53 392.44 697.978 396.281 697.978 396.281C697.978 396.281 710.22 397.04 717.709 391.267C725.204 385.495 728.383 390.925 736.068 385.441C743.753 379.958 748.695 380.463 750.755 375.343Z" fill="#0E1F31"></path><path d="M750.754 375.342C748.694 380.46 743.751 379.954 736.066 385.441C728.382 390.927 725.203 385.492 717.707 391.266C710.218 397.041 697.977 396.281 697.977 396.281C697.977 396.281 697.528 392.44 695.493 392.528C693.458 392.616 677.659 389.647 670.688 385.457C663.723 381.267 645.459 389.126 645.459 389.126C651.096 386.246 643.715 387.763 656.538 383.076C656.538 383.076 670.941 371.911 673.38 368.632C675.82 365.353 689.489 367.635 689.489 367.635C689.489 367.635 691.809 369.87 696.473 366.793C701.143 363.717 709.466 367.428 712.677 366.57C715.881 365.712 726.561 362.855 734.31 365.693C742.058 368.531 752.738 364.416 750.754 375.342Z" fill="#152846"></path><path d="M826.372 186.223C821.493 183.216 821.802 183.696 819.458 181.142C817.119 178.588 818.446 178.339 816.039 177.667C813.631 176.995 807.817 173.297 807.21 173.826C806.603 174.355 801.642 176.759 799.803 176.123C797.958 175.486 797.717 177.408 789.034 174.831C780.357 172.253 778.973 174.099 778.973 174.099C778.973 174.099 775.826 179.19 774.808 182.428C773.791 185.665 771.395 186.472 771.105 188.222C770.814 189.973 769.86 194.866 768.69 196.098C767.521 197.331 768.318 198.24 764.191 200.984C764.191 200.984 762.055 202.095 761.922 204.08C761.922 204.08 766.32 210.93 767.591 211.529C768.867 212.128 772.223 215.716 772.893 216.844C773.557 217.971 781.741 222.909 784.787 221.745C784.787 221.745 794.109 217.467 794.899 213.359C795.689 209.251 799.993 202.186 800.726 201.437C801.465 200.688 800.144 199.193 800.144 199.193C800.144 199.193 804.069 194.25 808.872 193.375C813.675 192.499 812.683 189.412 817.435 188.362C822.194 187.313 823.698 185.243 826.372 186.223Z" fill="#152846"></path><path d="M826.372 186.223C823.699 185.245 822.188 187.31 817.43 188.36C812.677 189.409 813.669 192.497 808.866 193.372C804.063 194.247 800.138 199.191 800.138 199.191C800.138 199.191 801.459 200.685 800.72 201.434C799.987 202.183 795.683 209.248 794.893 213.356C794.097 217.465 784.781 221.743 784.781 221.743C787.834 220.579 784.705 222.88 790.924 219.59C790.924 219.59 800.183 217.929 802.281 218.127C804.385 218.325 808.215 212.314 808.215 212.314C808.215 212.314 808.152 210.657 810.945 209.932C813.745 209.207 815.186 204.743 816.621 203.813C818.049 202.883 822.833 199.783 824.413 195.841C825.993 191.899 831.257 189.226 826.372 186.223Z" fill="#0E1F31"></path><path d="M348.508 396.933C348.508 396.933 337.741 411.465 333.308 417.783C328.874 424.102 313.674 434.211 309.24 432.948C304.806 431.684 300.373 419.047 300.373 419.047L300.379 419.041C300.728 418.883 312.47 413.367 316.841 413.992C321.274 414.624 337.741 396.933 337.741 396.933L342.998 389.445C347.463 393.805 348.508 396.933 348.508 396.933Z" fill="#0E1F31"></path><path d="M342.997 389.445L337.741 396.932C337.741 396.932 321.273 414.624 316.84 413.992C312.469 413.366 300.727 418.882 300.379 419.04C300.55 418.712 306.162 408.255 311.773 405.146C317.473 401.987 316.84 391.877 324.44 389.982C332.04 388.086 335.84 383.032 341.541 388.086C342.06 388.548 342.545 389.003 342.997 389.445Z" fill="#0E1F31"></path><path d="M596.394 378.26C596.394 378.26 614.487 377.39 622.216 377.218C629.946 377.045 646.813 370.041 648.216 365.66C649.626 361.28 641.549 350.587 641.549 350.587H641.542C641.214 350.788 630.097 357.474 628.194 361.446C626.26 365.476 602.37 369.324 602.37 369.324L593.209 369.531C594.367 375.658 596.394 378.26 596.394 378.26Z" fill="#0E1F31"></path><path d="M593.382 369.636L602.602 369.427C602.602 369.427 626.649 365.555 628.594 361.498C630.508 357.499 641.7 350.772 642.029 350.568C641.656 350.527 629.743 349.373 624.001 352.324C618.166 355.32 610.035 349.144 604.198 354.434C598.362 359.724 591.997 360.074 593.056 367.658C593.152 368.352 593.262 369.015 593.382 369.636Z" fill="#0E1F31"></path><path d="M828.186 262.815C828.186 262.815 832.344 271.608 834.019 275.405C835.694 279.203 842.658 286.124 845.129 285.92C847.6 285.716 851.266 279.509 851.266 279.509V279.505C851.101 279.385 845.483 275.249 843.107 275.123C840.705 274.997 833.867 263.939 833.867 263.939L831.876 259.439C829.064 261.274 828.186 262.815 828.186 262.815Z" fill="#0E1F31"></path><path d="M831.857 259.543L833.861 264.073C833.861 264.073 840.743 275.2 843.164 275.33C845.546 275.456 851.202 279.62 851.373 279.741C851.316 279.551 849.439 273.404 846.785 271.164C844.093 268.889 845.496 263.581 841.659 261.778C837.817 259.975 836.338 256.889 832.774 258.975C832.451 259.166 832.142 259.356 831.857 259.543Z" fill="#0E1F31"></path><path d="M758.805 138.934C758.805 138.934 754.388 136.734 752.523 135.748C750.665 134.762 745.717 134.185 744.794 135.04C743.878 135.895 744.371 139.512 744.371 139.512C744.472 139.507 748.011 139.396 748.991 138.703C749.989 138.002 756.189 140.263 756.189 140.263L758.394 141.432C758.71 140.638 758.856 139.786 758.805 138.934Z" fill="#0E1F31"></path><path d="M758.377 141.386L756.152 140.209C756.152 140.209 749.915 137.935 748.91 138.639C747.917 139.334 744.359 139.449 744.252 139.453C744.34 139.512 747.014 141.371 748.777 141.433C750.565 141.496 751.678 144.046 753.77 143.564C755.868 143.082 757.429 143.844 758.187 141.899C758.257 141.722 758.32 141.551 758.377 141.386Z" fill="#0E1F31"></path><path d="M756.385 195.394C756.385 195.394 751.569 202.039 749.585 204.928C747.601 207.818 740.8 212.44 738.822 211.862C736.838 211.285 734.854 205.506 734.854 205.506C735.012 205.433 740.263 202.911 742.216 203.197C744.201 203.486 751.569 195.397 751.569 195.397L753.92 191.974C755.917 193.965 756.385 195.394 756.385 195.394Z" fill="#0E1F31"></path><path d="M753.92 191.973L751.569 195.396C751.569 195.396 744.201 203.484 742.222 203.196C740.263 202.911 735.012 205.432 734.854 205.505C734.929 205.355 737.445 200.573 739.954 199.152C742.5 197.707 742.222 193.086 745.623 192.218C749.023 191.35 750.723 189.04 753.27 191.352C753.503 191.56 753.718 191.769 753.92 191.973Z" fill="#0E1F31"></path><path d="M581.404 177.231C581.404 177.231 581.933 174.451 582.127 173.255C582.323 172.058 583.768 169.62 584.471 169.51C585.174 169.4 586.647 170.916 586.647 170.916C586.609 170.962 585.337 172.519 584.683 172.716C584.021 172.916 582.91 176.524 582.91 176.524L582.678 177.939C582.208 177.796 581.773 177.555 581.404 177.231Z" fill="#0E1F31"></path><path d="M582.678 177.941L582.91 176.526C582.91 176.526 584.023 172.918 584.683 172.718C585.337 172.521 586.607 170.963 586.647 170.918C586.647 170.976 586.564 172.838 585.988 173.651C585.404 174.475 586.172 175.879 585.237 176.648C584.301 177.417 584.11 178.388 582.972 178.038C582.87 178.009 582.771 177.974 582.678 177.941Z" fill="#0E1F31"></path><path d="M295.432 480.006C295.432 480.006 277.888 487.601 265.853 497.711C253.82 507.82 236.086 512.878 223.419 511.614C210.752 510.351 191.118 519.828 184.518 513.194C181.491 510.155 173.986 506.91 166.253 504.964C157.1 502.658 147.632 502.159 144.883 505.925C143.496 507.826 141.279 509.239 138.784 510.275L123.666 513.194C123.666 513.194 125.566 500.554 135.066 494.235C144.566 487.917 141.399 482.862 155.333 474.017C169.267 465.171 166.101 453.798 173.068 449.375C180.035 444.952 192.569 448.111 200.555 449.375C208.541 450.638 218.669 443.056 230.703 449.375C242.736 455.693 240.203 465.803 264.27 469.594C288.338 473.385 295.432 480.006 295.432 480.006Z" fill="#0E1F31"></path><path d="M774.404 279.018C774.404 279.018 770.669 288.819 772.717 294.332C772.717 294.332 773.355 295.251 771.794 302.036C770.233 308.82 776.041 319.352 776.041 319.352C776.041 319.352 781.495 327.411 782.487 329.037C783.479 330.662 787.372 334.904 786.671 338.791C785.963 342.678 792.548 348.051 792.548 348.051C792.548 348.051 801.194 344.801 803.526 345.226C805.864 345.65 808.771 346.499 811.887 345.298C811.887 345.298 819.894 348.197 824.501 348.551C829.102 348.905 828.679 353.005 833.001 353.147C835.485 353.27 837.95 352.655 840.086 351.381C840.086 351.381 836.332 348.455 834.303 345.013C833.526 343.822 833.09 342.444 833.039 341.025C833.077 338.42 828.672 335.473 823.8 333.443C819.686 331.724 815.236 330.663 812.86 331.007C807.678 331.766 802.078 320.95 795.986 317.274C789.894 313.598 783.662 305.396 781.678 296.846C779.7 288.296 774.404 279.018 774.404 279.018Z" fill="#0E1F31"></path><path d="M774.404 279.017C774.404 279.017 779.694 288.29 781.678 296.842C783.663 305.395 789.894 313.594 795.987 317.271C802.079 320.948 807.672 331.762 812.86 331.004C815.237 330.658 819.686 331.721 823.8 333.44C828.666 335.473 833.071 338.42 833.033 341.022C833.09 342.441 833.526 343.819 834.304 345.009L840.086 351.378C840.086 351.378 843.486 345.088 841.363 339.08C839.24 333.071 842.355 331.871 839.094 323.248C835.839 314.624 841.085 310.596 839.454 306.285C837.824 301.973 831.156 299.19 827.156 297.081C823.155 294.971 821.177 288.188 813.663 286.985C806.155 285.782 803.886 291.155 791.847 284.791C779.801 278.426 774.404 279.017 774.404 279.017Z" fill="#152846"></path><path d="M669.248 150.65C669.248 150.65 664.622 149.052 662.075 150.082C662.075 150.082 661.652 150.391 658.466 149.766C655.275 149.14 650.44 151.986 650.44 151.986C650.44 151.986 646.756 154.635 646.004 155.119C645.258 155.603 643.337 157.474 641.51 157.2C639.684 156.926 637.263 160.063 637.263 160.063C637.263 160.063 638.907 164.034 638.742 165.127C638.578 166.22 638.218 167.581 638.824 169.013C638.824 169.013 637.586 172.774 637.485 174.919C637.383 177.064 635.462 176.925 635.456 178.935C635.437 180.092 635.759 181.229 636.385 182.203C637.194 181.128 638.167 180.189 639.273 179.423C639.823 179.046 640.455 178.823 641.118 178.778C642.338 178.758 643.653 176.669 644.531 174.377C645.277 172.44 645.707 170.359 645.511 169.259C645.081 166.858 650.055 164.107 651.685 161.223C653.316 158.339 657.057 155.326 661.02 154.283C663.901 153.413 666.663 152.193 669.248 150.65Z" fill="#152846"></path><path d="M669.247 150.65C666.669 152.193 663.907 153.413 661.032 154.285C657.063 155.328 653.322 158.341 651.691 161.224C650.067 164.107 645.093 166.862 645.523 169.261C645.719 170.361 645.283 172.443 644.537 174.379C643.658 176.671 642.344 178.76 641.131 178.779C640.467 178.825 639.829 179.048 639.285 179.424L636.391 182.205C636.391 182.205 639.38 183.696 642.154 182.623C644.935 181.551 645.535 182.982 649.517 181.346C653.498 179.709 655.451 182.089 657.442 181.271C659.433 180.452 660.64 177.313 661.563 175.425C662.492 173.537 665.633 172.518 666.088 169.013C666.543 165.507 664.002 164.527 666.802 158.84C669.601 153.154 669.247 150.65 669.247 150.65Z" fill="#0E1F31"></path><path d="M577.773 185.755C577.773 185.755 580.146 184.934 581.45 185.465C581.45 185.465 581.666 185.624 583.301 185.301C584.935 184.979 587.414 186.439 587.414 186.439C587.414 186.439 589.302 187.796 589.684 188.044C590.066 188.292 591.053 189.251 591.987 189.111C592.923 188.97 594.161 190.578 594.161 190.578C594.161 190.578 593.32 192.613 593.405 193.173C593.587 193.827 593.572 194.519 593.361 195.164C593.691 196.148 593.921 197.162 594.048 198.192C594.099 199.291 595.083 199.219 595.086 200.249C595.097 200.842 594.932 201.425 594.611 201.924C594.197 201.373 593.697 200.893 593.129 200.501C592.85 200.308 592.524 200.193 592.185 200.17C591.561 200.16 590.888 199.089 590.436 197.915C590.074 197.089 589.902 196.192 589.933 195.291C590.153 194.062 587.605 192.651 586.767 191.173C585.668 189.438 583.964 188.171 581.982 187.617C580.509 187.17 579.095 186.545 577.773 185.755Z" fill="#0E1F31"></path><path d="M578.601 185.931C579.852 186.678 581.19 187.27 582.585 187.693C584.46 188.217 586.073 189.416 587.112 191.057C587.903 192.456 590.313 193.791 590.105 194.954C590.076 195.806 590.239 196.654 590.581 197.436C591.008 198.547 591.644 199.559 592.235 199.569C592.556 199.592 592.865 199.701 593.128 199.885L594.531 201.232C593.658 201.646 592.661 201.718 591.738 201.435C590.392 200.915 590.099 201.609 588.169 200.816C586.239 200.023 585.291 201.176 584.326 200.779C583.362 200.382 582.777 198.86 582.327 197.944C581.878 197.029 580.355 196.536 580.135 194.836C579.914 193.136 581.148 192.662 579.788 189.904C578.428 187.147 578.601 185.931 578.601 185.931Z" fill="#152846"></path><path d="M561.614 208.969C561.614 208.969 562.011 210.332 561.673 211.054C561.673 211.054 561.577 211.171 561.713 212.103C561.85 213.036 560.95 214.393 560.95 214.393C560.95 214.393 560.127 215.42 559.974 215.629C559.821 215.837 559.251 216.367 559.303 216.9C559.356 217.432 558.409 218.084 558.409 218.084C557.95 217.853 557.462 217.685 556.959 217.583C556.583 217.667 556.19 217.639 555.83 217.502C555.262 217.66 554.68 217.761 554.093 217.803C553.468 217.803 553.48 218.359 552.896 218.33C552.559 218.319 552.233 218.209 551.959 218.014C552.283 217.796 552.57 217.527 552.809 217.218C552.927 217.066 553.001 216.884 553.024 216.694C553.047 216.342 553.674 215.992 554.354 215.772C554.833 215.59 555.346 215.519 555.856 215.562C556.548 215.721 557.421 214.323 558.283 213.894C559.299 213.323 560.066 212.396 560.436 211.294C560.732 210.474 561.128 209.693 561.614 208.969Z" fill="#0E1F31"></path><path d="M561.488 209.43C561.028 210.115 560.654 210.854 560.374 211.63C560.024 212.674 559.298 213.55 558.336 214.089C557.521 214.496 556.694 215.818 556.041 215.669C555.558 215.629 555.072 215.696 554.619 215.867C553.977 216.077 553.384 216.407 553.361 216.74C553.34 216.921 553.27 217.092 553.158 217.236L552.355 217.989C552.145 217.484 552.132 216.919 552.319 216.406C552.652 215.661 552.267 215.476 552.772 214.409C553.278 213.341 552.65 212.773 552.903 212.24C553.156 211.707 554.036 211.419 554.568 211.192C555.101 210.966 555.423 210.118 556.394 210.043C557.365 209.968 557.598 210.675 559.201 209.989C560.806 209.303 561.488 209.43 561.488 209.43Z" fill="#152846"></path><path d="M402.955 384.498C399.682 388.853 401.319 389.941 399.682 392.118C398.044 394.296 393.68 402.46 389.865 401.371C386.049 400.282 387.137 397.017 382.226 397.017C377.316 397.017 377.316 393.207 377.316 393.207C377.038 390.438 377.411 387.642 378.407 385.043C379.46 382.583 380.066 380.803 381.384 379.997L380.483 380.825C380.483 380.825 380.587 385.043 383.315 385.587C386.043 386.131 388.771 387.22 389.862 388.308C390.953 389.397 390.953 390.486 394.773 387.22C398.592 383.954 404.075 381.091 404.876 381.162C404.994 381.714 404.401 382.577 402.955 384.498Z" fill="#0E1F31"></path><path d="M404.877 381.157V381.162C404.076 381.092 398.592 383.955 394.774 387.22C390.955 390.485 390.954 389.397 389.863 388.309C388.772 387.22 386.044 386.132 383.316 385.587C380.588 385.043 380.484 380.825 380.484 380.825L381.385 379.997L381.396 379.992C382.322 379.512 383.388 379.373 384.407 379.601C388.226 380.145 392.046 378.512 393.136 377.967C394.227 377.423 397.501 376.879 401.32 379.056C403.055 380.047 404.228 380.362 404.681 380.819L404.686 380.825L404.877 381.157Z" fill="#0E1F31"></path><path d="M845.938 221.297C843.113 225.051 844.522 225.989 843.113 227.868C841.704 229.747 837.943 236.783 834.651 235.845C831.358 234.907 832.293 232.091 828.059 232.091C823.825 232.091 823.831 228.806 823.831 228.806C823.591 226.419 823.913 224.009 824.766 221.768C825.677 219.647 826.201 218.112 827.339 217.418L826.561 218.131C826.561 218.131 826.65 221.768 829.001 222.238C831.352 222.709 833.703 223.646 834.644 224.584C835.586 225.523 835.586 226.461 838.879 223.646C842.171 220.831 846.898 218.363 847.587 218.423C847.695 218.894 847.183 219.64 845.938 221.297Z" fill="#0E1F31"></path><path d="M847.587 218.416V218.42C846.898 218.357 842.171 220.828 838.878 223.643C835.585 226.459 835.585 225.52 834.644 224.581C833.702 223.643 831.351 222.704 829 222.235C826.649 221.767 826.561 218.128 826.561 218.128L827.338 217.415L827.344 217.411C828.147 216.997 829.063 216.877 829.942 217.073C833.234 217.542 836.527 216.134 837.469 215.665C838.404 215.195 841.229 214.727 844.522 216.603C846.019 217.457 847.031 217.73 847.422 218.124V218.128L847.587 218.416Z" fill="#0E1F31"></path><path d="M750.836 303.853C748.1 308.264 746.564 307.193 745.192 309.399C743.827 311.604 738.083 318.308 740.377 321.307C742.671 324.306 745.199 322.209 746.905 326.556C748.611 330.903 751.999 329.578 751.999 329.578C754.558 328.862 756.916 327.56 758.881 325.775C760.701 323.988 762.079 322.833 762.338 321.385L761.915 322.469C761.915 322.469 758.123 323.843 756.694 321.618C755.26 319.392 753.345 317.355 751.999 316.768C750.646 316.18 749.679 316.559 751.259 312.043C752.833 307.527 753.471 301.681 753.136 300.993C752.605 301.078 752.043 301.905 750.836 303.853Z" fill="#0E1F31"></path><path d="M753.144 300.992H753.138C753.479 301.678 752.834 307.526 751.261 312.042C749.681 316.558 750.648 316.179 752 316.767C753.346 317.354 755.261 319.391 756.696 321.617C758.124 323.843 761.916 322.468 761.916 322.468L762.339 321.384V321.374C762.44 320.387 762.194 319.395 761.638 318.572C759.83 315.38 759.957 311.432 760.058 310.277C760.159 309.122 759.508 306.036 756.247 303.411C754.762 302.22 754.073 301.291 753.511 301.049H753.504L753.144 300.992Z" fill="#0E1F31"></path><path d="M691.126 167.347C689.597 169.819 688.731 169.219 687.966 170.455C687.201 171.691 683.985 175.446 685.268 177.127C686.557 178.808 687.966 177.633 688.927 180.068C689.881 182.503 691.777 181.761 691.777 181.761C693.212 181.36 694.532 180.63 695.638 179.63C696.656 178.629 697.427 177.982 697.572 177.171L697.332 177.778C697.332 177.778 695.209 178.548 694.406 177.301C693.603 176.054 692.535 174.913 691.777 174.584C691.025 174.255 690.481 174.467 691.366 171.937C692.245 169.407 692.605 166.13 692.415 165.745C692.118 165.793 691.802 166.257 691.126 167.347Z" fill="#0E1F31"></path><path d="M692.423 165.744C692.612 166.128 692.252 169.405 691.367 171.936C690.482 174.467 691.026 174.254 691.784 174.583C692.536 174.912 693.611 176.053 694.413 177.3C695.216 178.547 697.339 177.777 697.339 177.777L697.573 177.17V177.163C697.636 176.61 697.497 176.055 697.181 175.593C696.461 174.156 696.158 172.547 696.297 170.945C696.354 170.298 695.987 168.569 694.161 167.099C693.674 166.63 693.162 166.187 692.625 165.772L692.423 165.744Z" fill="#0E1F31"></path><path d="M628.828 184.459C627.742 183.128 628.244 182.765 627.701 182.099C627.158 181.434 625.682 178.916 624.493 179.307C623.303 179.697 623.688 180.712 622.141 180.773C620.595 180.834 620.641 182.037 620.641 182.037C620.588 182.912 620.739 183.788 621.084 184.595C621.447 185.357 621.66 185.91 622.086 186.147L621.792 185.898C621.792 185.898 621.772 184.568 622.625 184.362C623.367 184.218 624.062 183.897 624.651 183.424C624.981 183.068 624.968 182.725 626.211 183.706C627.181 184.491 628.285 185.095 629.472 185.489C629.503 185.311 629.307 185.046 628.828 184.459Z" fill="#0E1F31"></path><path d="M629.47 185.487C628.288 185.093 627.184 184.489 626.214 183.704C624.971 182.723 624.984 183.066 624.654 183.422C624.065 183.895 623.369 184.217 622.627 184.361C621.775 184.566 621.795 185.896 621.795 185.896L622.089 186.146C622.387 186.285 622.725 186.316 623.042 186.232C623.986 186.109 624.945 186.249 625.812 186.638C626.245 186.762 626.701 186.788 627.145 186.711C627.59 186.634 628.011 186.458 628.377 186.196C628.732 186.014 629.079 185.815 629.414 185.599L629.47 185.487Z" fill="#0E1F31"></path><path d="M1230 274.308V639H974.318L974.394 638.292L977.529 609.771C977.529 609.771 981.352 571.462 998.498 520.1C1006.03 497.429 1015.22 475.34 1025.99 454.009C1040.41 425.583 1058.98 396.436 1082.84 369.583C1090.62 360.822 1098.83 352.466 1107.47 344.549C1141.93 312.889 1182.94 289.169 1227.6 275.066C1228.39 274.807 1229.2 274.554 1230 274.308Z" fill="#152846"></path><path d="M1036.32 447.047L1005.68 467.703L991.68 510.054C991.68 510.054 1029.47 565.928 1031.48 567.589L1036.32 447.047Z" fill="#152846"></path><path d="M1230 268.508V297.08L1227.6 297.642L1148.51 316.294L1155.19 308.326L1177.03 282.32L1223.68 262.189L1227.6 266.107L1230 268.508Z" fill="#152846"></path><path d="M1082.84 369.584L1083.64 358.844L1102.73 342.29L1120.33 350.695L1082.84 369.584Z" fill="#152846"></path><path d="M1230 425.027V530.051C1229.2 530.765 1228.4 531.467 1227.6 532.155C1197.94 557.473 1161.94 564.063 1144.11 546.277C1124.82 527.031 1134.14 486.53 1164.94 455.81C1184.53 436.267 1208.09 425.393 1227.6 425.014C1228.41 425.002 1229.21 425.002 1230 425.027Z" fill="#0E1F31"></path><path d="M955.258 259.274C955.264 259.572 955.169 259.862 954.998 260.106C954.828 260.35 954.588 260.534 954.303 260.634L948.495 262.737L946.391 268.531C946.283 268.808 946.1 269.046 945.854 269.214C945.614 269.382 945.323 269.473 945.026 269.473C944.729 269.473 944.438 269.382 944.198 269.214C943.951 269.046 943.768 268.808 943.661 268.531L941.556 262.737L935.748 260.634C935.47 260.529 935.23 260.343 935.066 260.101C934.895 259.858 934.807 259.57 934.807 259.275C934.807 258.981 934.895 258.693 935.066 258.45C935.23 258.208 935.47 258.022 935.748 257.917L941.556 255.814L943.661 250.02C943.768 249.743 943.951 249.505 944.198 249.337C944.438 249.168 944.729 249.078 945.026 249.078C945.323 249.078 945.614 249.168 945.854 249.337C946.1 249.505 946.283 249.743 946.391 250.02L948.495 255.814L954.303 257.917C954.588 258.017 954.828 258.201 954.998 258.444C955.169 258.687 955.264 258.977 955.258 259.274Z" fill="#152846"></path><path d="M1213.03 199.348C1213.04 199.734 1212.92 200.113 1212.7 200.43C1212.48 200.747 1212.16 200.987 1211.79 201.117L1204.24 203.852L1201.5 211.384C1201.37 211.745 1201.13 212.057 1200.81 212.278C1200.49 212.498 1200.11 212.616 1199.73 212.616C1199.34 212.616 1198.96 212.498 1198.65 212.278C1198.33 212.057 1198.09 211.745 1197.95 211.384L1195.22 203.852L1187.66 201.117C1187.3 200.984 1186.99 200.742 1186.77 200.426C1186.55 200.11 1186.43 199.733 1186.43 199.348C1186.43 198.962 1186.55 198.586 1186.77 198.27C1186.99 197.953 1187.3 197.712 1187.66 197.579L1195.22 194.844L1197.95 187.312C1198.09 186.95 1198.33 186.638 1198.65 186.418C1198.96 186.197 1199.34 186.079 1199.73 186.079C1200.11 186.079 1200.49 186.197 1200.81 186.418C1201.13 186.638 1201.37 186.95 1201.5 187.312L1204.24 194.844L1211.79 197.579C1212.16 197.709 1212.48 197.949 1212.7 198.265C1212.92 198.583 1213.04 198.961 1213.03 199.348Z" fill="#0E1F31"></path></g></g></g><defs><clipPath id="clip0_19_15517"><rect width="1227.49" height="465.361" fill="white"></rect></clipPath><clipPath id="clip1_19_15517"><rect width="1233" height="762" fill="white" transform="translate(-3 -123)"></rect></clipPath></defs></svg> 