<?xml version="1.0" encoding="UTF-8"?> <svg xmlns="http://www.w3.org/2000/svg" width="1920" height="434" viewBox="0 0 1920 434" fill="none"><rect width="1920" height="434" fill="#FAF7F1"></rect><path d="M1182.63 203.676L1189.25 205.61C1190.44 205.96 1191.38 206.895 1191.73 208.092L1193.66 214.709C1194.69 218.214 1199.65 218.214 1200.68 214.709L1202.61 208.092C1202.96 206.895 1203.9 205.96 1205.09 205.61L1211.71 203.676C1215.21 202.652 1215.21 197.686 1211.71 196.662L1205.09 194.728C1203.9 194.378 1202.96 193.443 1202.61 192.246L1200.68 185.629C1199.65 182.124 1194.69 182.124 1193.66 185.629L1191.73 192.246C1191.38 193.443 1190.44 194.378 1189.25 194.728L1182.63 196.662C1179.12 197.686 1179.12 202.652 1182.63 203.676Z" fill="#474747" fill-opacity="0.1"></path><path d="M324.629 32.676L331.246 34.6101C332.443 34.9598 333.378 35.8954 333.728 37.0919L335.663 43.7093C336.687 47.2144 341.652 47.2144 342.677 43.7093L344.611 37.0919C344.96 35.8954 345.896 34.9598 347.092 34.6101L353.71 32.676C357.215 31.6517 357.215 26.6865 353.71 25.6621L347.092 23.728C345.896 23.3783 344.96 22.4427 344.611 21.2462L342.677 14.6288C341.652 11.1237 336.687 11.1237 335.663 14.6288L333.728 21.2462C333.378 22.4427 332.443 23.3783 331.246 23.728L324.629 25.6621C321.124 26.6865 321.124 31.6517 324.629 32.676Z" fill="#474747" fill-opacity="0.1"></path><path d="M511.629 364.676L518.246 366.61C519.443 366.96 520.378 367.895 520.728 369.092L522.663 375.709C523.687 379.214 528.652 379.214 529.677 375.709L531.611 369.092C531.96 367.895 532.896 366.96 534.092 366.61L540.71 364.676C544.215 363.652 544.215 358.686 540.71 357.662L534.092 355.728C532.896 355.378 531.96 354.443 531.611 353.246L529.677 346.629C528.652 343.124 523.687 343.124 522.663 346.629L520.728 353.246C520.378 354.443 519.443 355.378 518.246 355.728L511.629 357.662C508.124 358.686 508.124 363.652 511.629 364.676Z" fill="#474747" fill-opacity="0.1"></path><path d="M941.629 49.676L948.246 51.6101C949.443 51.9598 950.378 52.8954 950.728 54.0919L952.663 60.7093C953.687 64.2144 958.652 64.2144 959.677 60.7093L961.611 54.0919C961.96 52.8954 962.896 51.9598 964.092 51.6101L970.71 49.676C974.215 48.6517 974.215 43.6865 970.71 42.6621L964.092 40.728C962.896 40.3783 961.96 39.4427 961.611 38.2462L959.677 31.6288C958.652 28.1237 953.687 28.1237 952.663 31.6288L950.728 38.2462C950.378 39.4427 949.443 40.3783 948.246 40.728L941.629 42.6621C938.124 43.6865 938.124 48.6517 941.629 49.676Z" fill="#474747" fill-opacity="0.1"></path><path d="M1508.63 275.676L1515.25 277.61C1516.44 277.96 1517.38 278.895 1517.73 280.092L1519.66 286.709C1520.69 290.214 1525.65 290.214 1526.68 286.709L1528.61 280.092C1528.96 278.895 1529.9 277.96 1531.09 277.61L1537.71 275.676C1541.21 274.652 1541.21 269.686 1537.71 268.662L1531.09 266.728C1529.9 266.378 1528.96 265.443 1528.61 264.246L1526.68 257.629C1525.65 254.124 1520.69 254.124 1519.66 257.629L1517.73 264.246C1517.38 265.443 1516.44 266.378 1515.25 266.728L1508.63 268.662C1505.12 269.686 1505.12 274.652 1508.63 275.676Z" fill="#474747" fill-opacity="0.1"></path><path d="M1580.63 407.676L1587.25 409.61C1588.44 409.96 1589.38 410.895 1589.73 412.092L1591.66 418.709C1592.69 422.214 1597.65 422.214 1598.68 418.709L1600.61 412.092C1600.96 410.895 1601.9 409.96 1603.09 409.61L1609.71 407.676C1613.21 406.652 1613.21 401.686 1609.71 400.662L1603.09 398.728C1601.9 398.378 1600.96 397.443 1600.61 396.246L1598.68 389.629C1597.65 386.124 1592.69 386.124 1591.66 389.629L1589.73 396.246C1589.38 397.443 1588.44 398.378 1587.25 398.728L1580.63 400.662C1577.12 401.686 1577.12 406.652 1580.63 407.676Z" fill="#474747" fill-opacity="0.1"></path><path d="M1689.63 229.676L1696.25 231.61C1697.44 231.96 1698.38 232.895 1698.73 234.092L1700.66 240.709C1701.69 244.214 1706.65 244.214 1707.68 240.709L1709.61 234.092C1709.96 232.895 1710.9 231.96 1712.09 231.61L1718.71 229.676C1722.21 228.652 1722.21 223.686 1718.71 222.662L1712.09 220.728C1710.9 220.378 1709.96 219.443 1709.61 218.246L1707.68 211.629C1706.65 208.124 1701.69 208.124 1700.66 211.629L1698.73 218.246C1698.38 219.443 1697.44 220.378 1696.25 220.728L1689.63 222.662C1686.12 223.686 1686.12 228.652 1689.63 229.676Z" fill="#474747" fill-opacity="0.1"></path><path d="M1558.58 191.783L1575.16 196.627C1578.15 197.503 1580.5 199.846 1581.37 202.843L1586.22 219.416C1588.78 228.195 1601.22 228.195 1603.78 219.416L1608.63 202.843C1609.5 199.846 1611.85 197.503 1614.84 196.627L1631.42 191.783C1640.19 189.218 1640.19 176.782 1631.42 174.217L1614.84 169.373C1611.85 168.497 1609.5 166.154 1608.63 163.157L1603.78 146.584C1601.22 137.805 1588.78 137.805 1586.22 146.584L1581.37 163.157C1580.5 166.154 1578.15 168.497 1575.16 169.373L1558.58 174.217C1549.81 176.782 1549.81 189.218 1558.58 191.783Z" fill="#474747" fill-opacity="0.1"></path></svg> 