<?xml version="1.0" encoding="UTF-8"?> <svg xmlns="http://www.w3.org/2000/svg" width="1920" height="602" viewBox="0 0 1920 602" fill="none"><g clip-path="url(#clip0_25_66)"><path d="M1920 0H0V602H1920V0Z" fill="#FAF7F1"></path><path d="M384.542 276.008C379.177 260.867 352.238 255.449 316.059 259.749C299.689 239.022 267.794 230.858 237.33 241.653C206.9 252.435 187.272 278.813 187.56 305.194C156.548 324.686 138.893 345.95 144.276 361.142C152.622 384.698 213.174 384.735 279.521 361.226C345.869 337.716 392.888 299.563 384.542 276.008ZM170.982 361.775C166.89 363.225 162.397 361.083 160.946 356.991C159.496 352.899 161.638 348.406 165.73 346.956C169.822 345.507 174.315 347.648 175.766 351.74C177.216 355.832 175.074 360.325 170.982 361.775ZM222.551 362.338C218.459 363.788 213.966 361.646 212.516 357.554C211.066 353.462 213.208 348.969 217.3 347.519C221.392 346.069 225.885 348.211 227.335 352.303C228.785 356.395 226.643 360.888 222.551 362.338ZM275.566 349.261C271.474 350.711 266.981 348.569 265.531 344.477C264.081 340.385 266.223 335.892 270.315 334.442C274.407 332.992 278.9 335.133 280.35 339.225C281.799 343.318 279.658 347.811 275.566 349.261ZM302.392 291.123C292.332 298.441 277.985 305.592 261.995 311.257C247.595 316.36 232.671 319.571 219.971 320.299C207.749 321 201.723 319.062 200.554 317.939C191.69 292.472 209.753 262.839 240.924 251.793C272.184 240.717 304.971 252.464 314.011 277.978C314.274 278.719 313.03 283.384 302.392 291.123ZM325.494 325.862C321.402 327.312 316.909 325.17 315.458 321.078C314.008 316.986 316.15 312.493 320.242 311.043C324.334 309.593 328.828 311.735 330.277 315.827C331.728 319.919 329.586 324.412 325.494 325.862ZM363.175 293.675C359.083 295.124 354.59 292.983 353.14 288.89C351.69 284.798 353.832 280.305 357.924 278.855C362.016 277.405 366.509 279.547 367.959 283.639C369.409 287.731 367.267 292.225 363.175 293.675Z" fill="#474747" fill-opacity="0.1"></path><path d="M288.488 263.881C276.942 256.049 263.2 253.884 250.786 257.939C248.457 258.7 247.186 261.204 247.947 263.532C248.117 264.052 248.374 264.52 248.698 264.924C249.819 266.327 251.732 266.961 253.54 266.37C263.471 263.126 274.114 264.849 283.509 271.221C285.536 272.596 288.294 272.067 289.669 270.04C291.044 268.013 290.516 265.256 288.488 263.881Z" fill="#474747" fill-opacity="0.1"></path><path d="M296.177 280.444C298.57 280.444 300.51 278.504 300.51 276.111C300.51 273.718 298.57 271.778 296.177 271.778C293.784 271.778 291.844 273.718 291.844 276.111C291.844 278.504 293.784 280.444 296.177 280.444Z" fill="#474747" fill-opacity="0.1"></path><path d="M376.127 384.868L369.51 382.934C368.314 382.584 367.378 381.649 367.028 380.452L365.094 373.835C364.07 370.33 359.105 370.33 358.08 373.835L356.146 380.452C355.796 381.649 354.86 382.584 353.664 382.934L347.046 384.868C343.542 385.893 343.542 390.858 347.046 391.882L353.664 393.816C354.86 394.166 355.796 395.101 356.146 396.298L358.08 402.915C359.105 406.42 364.07 406.42 365.094 402.915L367.028 396.298C367.378 395.101 368.314 394.166 369.51 393.816L376.127 391.882C379.632 390.858 379.632 385.893 376.127 384.868Z" fill="#474747" fill-opacity="0.1"></path><path d="M299.476 394.417C302.766 394.417 305.433 391.75 305.433 388.461C305.433 385.171 302.766 382.504 299.476 382.504C296.186 382.504 293.52 385.171 293.52 388.461C293.52 391.75 296.186 394.417 299.476 394.417Z" fill="#474747" fill-opacity="0.1"></path><path d="M151.169 260.723L153.103 267.34C154.127 270.845 159.093 270.845 160.117 267.34L162.052 260.723C162.401 259.526 163.337 258.591 164.533 258.241L171.151 256.307C174.656 255.283 174.656 250.317 171.151 249.293L164.533 247.359C163.337 247.009 162.401 246.074 162.052 244.877L160.117 238.26C159.093 234.755 154.127 234.755 153.103 238.26L151.169 244.877C150.819 246.074 149.884 247.009 148.687 247.359L142.07 249.293C138.565 250.317 138.565 255.283 142.07 256.307L148.687 258.241C149.883 258.591 150.819 259.526 151.169 260.723Z" fill="#474747" fill-opacity="0.1"></path><path d="M317.457 217.571L324.074 219.505C325.271 219.854 326.206 220.79 326.556 221.986L328.491 228.604C329.515 232.109 334.48 232.109 335.505 228.604L337.439 221.986C337.788 220.79 338.724 219.854 339.921 219.505L346.538 217.571C350.043 216.546 350.043 211.581 346.538 210.557L339.921 208.623C338.724 208.273 337.788 207.337 337.439 206.141L335.505 199.523C334.48 196.018 329.515 196.018 328.491 199.523L326.556 206.141C326.206 207.337 325.271 208.273 324.074 208.623L317.457 210.557C313.952 211.581 313.952 216.546 317.457 217.571Z" fill="#474747" fill-opacity="0.1"></path><path d="M179.504 206.656C182.793 206.656 185.46 203.989 185.46 200.699C185.46 197.409 182.793 194.742 179.504 194.742C176.214 194.742 173.547 197.409 173.547 200.699C173.547 203.989 176.214 206.656 179.504 206.656Z" fill="#474747" fill-opacity="0.1"></path><path d="M1242.63 284.676L1249.25 286.61C1250.44 286.96 1251.38 287.895 1251.73 289.092L1253.66 295.709C1254.69 299.214 1259.65 299.214 1260.68 295.709L1262.61 289.092C1262.96 287.895 1263.9 286.96 1265.09 286.61L1271.71 284.676C1275.21 283.652 1275.21 278.686 1271.71 277.662L1265.09 275.728C1263.9 275.378 1262.96 274.443 1262.61 273.246L1260.68 266.629C1259.65 263.124 1254.69 263.124 1253.66 266.629L1251.73 273.246C1251.38 274.443 1250.44 275.378 1249.25 275.728L1242.63 277.662C1239.12 278.686 1239.12 283.652 1242.63 284.676Z" fill="#474747" fill-opacity="0.1"></path><path d="M1314.63 416.676L1321.25 418.61C1322.44 418.96 1323.38 419.895 1323.73 421.092L1325.66 427.709C1326.69 431.214 1331.65 431.214 1332.68 427.709L1334.61 421.092C1334.96 419.895 1335.9 418.96 1337.09 418.61L1343.71 416.676C1347.21 415.652 1347.21 410.686 1343.71 409.662L1337.09 407.728C1335.9 407.378 1334.96 406.443 1334.61 405.246L1332.68 398.629C1331.65 395.124 1326.69 395.124 1325.66 398.629L1323.73 405.246C1323.38 406.443 1322.44 407.378 1321.25 407.728L1314.63 409.662C1311.12 410.686 1311.12 415.652 1314.63 416.676Z" fill="#474747" fill-opacity="0.1"></path><path d="M1423.63 238.676L1430.25 240.61C1431.44 240.96 1432.38 241.895 1432.73 243.092L1434.66 249.709C1435.69 253.214 1440.65 253.214 1441.68 249.709L1443.61 243.092C1443.96 241.895 1444.9 240.96 1446.09 240.61L1452.71 238.676C1456.21 237.652 1456.21 232.686 1452.71 231.662L1446.09 229.728C1444.9 229.378 1443.96 228.443 1443.61 227.246L1441.68 220.629C1440.65 217.124 1435.69 217.124 1434.66 220.629L1432.73 227.246C1432.38 228.443 1431.44 229.378 1430.25 229.728L1423.63 231.662C1420.12 232.686 1420.12 237.652 1423.63 238.676Z" fill="#474747" fill-opacity="0.1"></path><path d="M1688.63 338.676L1695.25 340.61C1696.44 340.96 1697.38 341.895 1697.73 343.092L1699.66 349.709C1700.69 353.214 1705.65 353.214 1706.68 349.709L1708.61 343.092C1708.96 341.895 1709.9 340.96 1711.09 340.61L1717.71 338.676C1721.21 337.652 1721.21 332.686 1717.71 331.662L1711.09 329.728C1709.9 329.378 1708.96 328.443 1708.61 327.246L1706.68 320.629C1705.65 317.124 1700.69 317.124 1699.66 320.629L1697.73 327.246C1697.38 328.443 1696.44 329.378 1695.25 329.728L1688.63 331.662C1685.12 332.686 1685.12 337.652 1688.63 338.676Z" fill="#474747" fill-opacity="0.1"></path></g><defs><clipPath id="clip0_25_66"><rect width="1920" height="602" fill="white"></rect></clipPath></defs></svg> 