<?xml version="1.0" encoding="UTF-8"?> <svg xmlns="http://www.w3.org/2000/svg" width="1920" height="602" viewBox="0 0 1920 602" fill="none"><g clip-path="url(#clip0_25_20)"><rect width="1920" height="602" fill="#FAF7F1"></rect><path d="M1326.63 144.676L1333.25 146.61C1334.44 146.96 1335.38 147.895 1335.73 149.092L1337.66 155.709C1338.69 159.214 1343.65 159.214 1344.68 155.709L1346.61 149.092C1346.96 147.895 1347.9 146.96 1349.09 146.61L1355.71 144.676C1359.21 143.652 1359.21 138.686 1355.71 137.662L1349.09 135.728C1347.9 135.378 1346.96 134.443 1346.61 133.246L1344.68 126.629C1343.65 123.124 1338.69 123.124 1337.66 126.629L1335.73 133.246C1335.38 134.443 1334.44 135.378 1333.25 135.728L1326.63 137.662C1323.12 138.686 1323.12 143.652 1326.63 144.676Z" fill="#474747" fill-opacity="0.1"></path><path d="M1617.63 367.676L1624.25 369.61C1625.44 369.96 1626.38 370.895 1626.73 372.092L1628.66 378.709C1629.69 382.214 1634.65 382.214 1635.68 378.709L1637.61 372.092C1637.96 370.895 1638.9 369.96 1640.09 369.61L1646.71 367.676C1650.21 366.652 1650.21 361.686 1646.71 360.662L1640.09 358.728C1638.9 358.378 1637.96 357.443 1637.61 356.246L1635.68 349.629C1634.65 346.124 1629.69 346.124 1628.66 349.629L1626.73 356.246C1626.38 357.443 1625.44 358.378 1624.25 358.728L1617.63 360.662C1614.12 361.686 1614.12 366.652 1617.63 367.676Z" fill="#474747" fill-opacity="0.1"></path><path d="M1689.63 499.676L1696.25 501.61C1697.44 501.96 1698.38 502.895 1698.73 504.092L1700.66 510.709C1701.69 514.214 1706.65 514.214 1707.68 510.709L1709.61 504.092C1709.96 502.895 1710.9 501.96 1712.09 501.61L1718.71 499.676C1722.21 498.652 1722.21 493.686 1718.71 492.662L1712.09 490.728C1710.9 490.378 1709.96 489.443 1709.61 488.246L1707.68 481.629C1706.65 478.124 1701.69 478.124 1700.66 481.629L1698.73 488.246C1698.38 489.443 1697.44 490.378 1696.25 490.728L1689.63 492.662C1686.12 493.686 1686.12 498.652 1689.63 499.676Z" fill="#474747" fill-opacity="0.1"></path><path d="M1798.63 321.676L1805.25 323.61C1806.44 323.96 1807.38 324.895 1807.73 326.092L1809.66 332.709C1810.69 336.214 1815.65 336.214 1816.68 332.709L1818.61 326.092C1818.96 324.895 1819.9 323.96 1821.09 323.61L1827.71 321.676C1831.21 320.652 1831.21 315.686 1827.71 314.662L1821.09 312.728C1819.9 312.378 1818.96 311.443 1818.61 310.246L1816.68 303.629C1815.65 300.124 1810.69 300.124 1809.66 303.629L1807.73 310.246C1807.38 311.443 1806.44 312.378 1805.25 312.728L1798.63 314.662C1795.12 315.686 1795.12 320.652 1798.63 321.676Z" fill="#474747" fill-opacity="0.1"></path><path d="M1667.58 175.783L1684.16 180.627C1687.15 181.503 1689.5 183.846 1690.37 186.843L1695.22 203.416C1697.78 212.195 1710.22 212.195 1712.78 203.416L1717.63 186.843C1718.5 183.846 1720.85 181.503 1723.84 180.627L1740.42 175.783C1749.19 173.218 1749.19 160.782 1740.42 158.217L1723.84 153.373C1720.85 152.497 1718.5 150.154 1717.63 147.157L1712.78 130.584C1710.22 121.805 1697.78 121.805 1695.22 130.584L1690.37 147.157C1689.5 150.154 1687.15 152.497 1684.16 153.373L1667.58 158.217C1658.81 160.782 1658.81 173.218 1667.58 175.783Z" fill="#474747" fill-opacity="0.1"></path><g clip-path="url(#clip1_25_20)"><path d="M42 317C16.9766 317.004 -7.57472 323.812 -29.0267 336.696C-50.4787 349.579 -68.024 368.053 -79.785 390.14C-74.2761 393.073 -69.6661 397.446 -66.446 402.793C-63.226 408.139 -61.5167 414.259 -61.5 420.5C-61.5 429.65 -65.1348 438.425 -71.6048 444.895C-78.0748 451.365 -86.85 455 -96 455C-96 482.294 -87.9064 508.975 -72.7428 531.669C-57.5792 554.363 -36.0265 572.05 -10.8103 582.495C14.4059 592.94 42.1531 595.673 68.9225 590.348C95.6918 585.024 120.281 571.88 139.581 552.581C158.88 533.281 172.024 508.692 177.348 481.922C182.673 455.153 179.94 427.406 169.495 402.19C159.05 376.973 141.363 355.421 118.669 340.257C95.9747 325.094 69.2938 317 42 317ZM-9.75 524C-13.1617 524 -16.4968 522.988 -19.3336 521.093C-22.1703 519.197 -24.3813 516.503 -25.6869 513.351C-26.9925 510.199 -27.3341 506.731 -26.6685 503.385C-26.003 500.039 -24.36 496.965 -21.9476 494.552C-19.5351 492.14 -16.4615 490.497 -13.1153 489.831C-9.76914 489.166 -6.30074 489.507 -3.14871 490.813C0.00331201 492.119 2.6974 494.33 4.59285 497.166C6.4883 500.003 7.5 503.338 7.5 506.75C7.5 511.325 5.68259 515.713 2.44759 518.948C-0.787414 522.183 -5.17502 524 -9.75 524ZM7.5 403.25C4.08827 403.25 0.753163 402.238 -2.08358 400.343C-4.92033 398.447 -7.13131 395.753 -8.43692 392.601C-9.74254 389.449 -10.0841 385.981 -9.41855 382.635C-8.75295 379.289 -7.11004 376.215 -4.69759 373.802C-2.28513 371.39 0.78852 369.747 4.13469 369.081C7.48086 368.416 10.9493 368.757 14.1013 370.063C17.2533 371.369 19.9474 373.58 21.8428 376.416C23.7383 379.253 24.75 382.588 24.75 386C24.75 390.575 22.9326 394.963 19.6976 398.198C16.4626 401.433 12.075 403.25 7.5 403.25ZM93.75 541.25C90.3383 541.25 87.0032 540.238 84.1664 538.343C81.3297 536.447 79.1187 533.753 77.8131 530.601C76.5075 527.449 76.1659 523.981 76.8315 520.635C77.497 517.289 79.14 514.215 81.5524 511.802C83.9649 509.39 87.0385 507.747 90.3847 507.081C93.7309 506.416 97.1993 506.757 100.351 508.063C103.503 509.369 106.197 511.58 108.093 514.416C109.988 517.253 111 520.588 111 524C111 528.575 109.183 532.963 105.948 536.198C102.713 539.433 98.325 541.25 93.75 541.25ZM93.75 455C86.9265 455 80.2563 452.977 74.5828 449.186C68.9093 445.395 64.4874 440.007 61.8762 433.703C59.2649 427.399 58.5817 420.462 59.9129 413.769C61.2441 407.077 64.5299 400.93 69.3548 396.105C74.1797 391.28 80.327 387.994 87.0194 386.663C93.7117 385.332 100.649 386.015 106.953 388.626C113.257 391.237 118.645 395.659 122.436 401.333C126.227 407.006 128.25 413.677 128.25 420.5C128.25 429.65 124.615 438.425 118.145 444.895C111.675 451.365 102.9 455 93.75 455Z" fill="#E8E6E0"></path></g></g><defs><clipPath id="clip0_25_20"><rect width="1920" height="602" fill="white"></rect></clipPath><clipPath id="clip1_25_20"><rect width="276" height="276" fill="white" transform="translate(-96 317)"></rect></clipPath></defs></svg> 